<?xml version="1.0" encoding="UTF-8"?>
<svg width="471px" height="365px" viewBox="0 0 471 365" version="1.1" xmlns="http://www.w3.org/2000/svg" xmlns:xlink="http://www.w3.org/1999/xlink">
    <!-- Generator: Sketch 53.2 (72643) - https://sketchapp.com -->
    <title>Croods - The Feedback(2)</title>
    <desc>Created with Sketch.</desc>
    <g id="Page-1" stroke="none" stroke-width="1" fill="none" fill-rule="evenodd">
        <g id="Desktop-HD-Copy-10" transform="translate(-791.000000, -206.000000)">
            <g id="Croods---The-Feedback(2)" transform="translate(791.000000, 206.000000)">
                <g id="Screen" opacity="0.472260975" transform="translate(51.000000, 0.000000)">
                    <g id="Screen/Stats">
                        <g id="Window">
                            <path d="M343.037304,241.34744 L6.89361735,241.34744 C3.46085205,241.34744 0.677660728,238.565389 0.677660728,235.134029 L0.677660728,6.89090258 C0.677660728,3.45927212 3.46085205,0.677220605 6.89361735,0.677220605 L343.037304,0.677220605 C346.470341,0.677220605 349.253261,3.45927212 349.253261,6.89090258 L349.253261,235.134029 C349.253261,238.565389 346.470341,241.34744 343.037304,241.34744 Z" id="Window-Bg" fill="#FFFFFF" fill-rule="nonzero"></path>
                            <path d="M343.037304,0.135227324 L6.89361735,0.135227324 C3.16134921,0.135227324 0.135445391,3.15998305 0.135445391,6.89090258 L0.135445391,235.134029 C0.135445391,238.864723 3.16139479,241.889433 6.89361735,241.889433 L343.037304,241.889433 C346.769709,241.889433 349.795476,238.864813 349.795476,235.134029 L349.795476,6.89090258 C349.795476,3.15989311 346.769755,0.135227324 343.037304,0.135227324 Z M6.89361735,1.21921389 L343.037304,1.21921389 C346.170824,1.21921389 348.711046,3.75854774 348.711046,6.89090258 L348.711046,235.134029 C348.711046,238.266151 346.170786,240.805447 343.037304,240.805447 L6.89361735,240.805447 C3.76030931,240.805447 1.21987607,238.266054 1.21987607,235.134029 L1.21987607,6.89090258 C1.21987607,3.75864498 3.76027106,1.21921389 6.89361735,1.21921389 Z" id="window-border" fill="#009192" fill-rule="nonzero"></path>
                            <path d="M79.4668087,118.742869 L79.4668087,128.845082 L23.3475213,128.845082 L23.3475213,118.742869 L79.4668087,118.742869 Z M112.270837,96.392692 L112.270837,106.494905 L23.3475213,106.494905 L23.3475213,96.392692 L112.270837,96.392692 Z M100.573896,72.9783113 L100.573896,83.0805241 L23.3475213,83.0805241 L23.3475213,72.9783113 L100.573896,72.9783113 Z M135.641944,51.0896417 L135.641944,61.1921254 L23.3475213,61.1921254 L23.3475213,51.0896417 L135.641944,51.0896417 Z M150.768125,25.2726047 L150.768125,35.3748175 L23.3475213,35.3748175 L23.3475213,25.2726047 L150.768125,25.2726047 Z" id="Info" fill="#E0E0E0" fill-rule="nonzero"></path>
                            <path d="M146.864988,136.087738 L146.864988,131.515483 C149.94188,130.966263 152.311361,129.833497 153.973431,128.117185 C155.635502,126.400873 156.466538,124.389355 156.466538,122.082632 C156.466538,119.995596 155.910225,118.347937 154.797599,117.139653 C153.684973,115.931369 152.373173,115.059483 150.8622,114.523993 C149.351227,113.988504 147.49685,113.514802 145.29907,113.102887 C143.595791,112.773355 142.373277,112.464419 141.631526,112.176078 C140.889775,111.887738 140.5189,111.455227 140.5189,110.878546 C140.5189,109.670263 141.768887,109.066121 144.268861,109.066121 C146.796308,109.066121 149.474852,109.780107 152.304493,111.208078 L152.304493,111.208078 L155.230287,104.164334 C152.95009,102.873667 150.161658,102.077298 146.864988,101.775227 L146.864988,101.775227 L146.864988,97.367738 L141.054609,97.367738 L141.054609,101.85761 C137.785412,102.324447 135.27857,103.422887 133.534082,105.152929 C131.789595,106.882972 130.917351,108.956277 130.917351,111.372844 C130.917351,113.45988 131.466796,115.114405 132.565686,116.336419 C133.664575,117.558433 134.955771,118.437185 136.439272,118.972674 C137.922773,119.508163 139.777149,120.009327 142.002401,120.476163 C143.733153,120.833156 144.976272,121.162688 145.731758,121.464759 C146.487245,121.76683 146.864988,122.219937 146.864988,122.824078 C146.864988,123.345837 146.57653,123.737156 145.999613,123.998036 C145.422696,124.258915 144.461167,124.389355 143.115027,124.389355 C141.549109,124.389355 139.914511,124.149071 138.211232,123.668504 C136.507952,123.187937 134.969507,122.549469 133.595895,121.7531 L133.595895,121.7531 L130.464059,128.838036 C131.70031,129.606944 133.25936,130.252277 135.141208,130.774036 C137.023057,131.295795 138.994191,131.611596 141.054609,131.72144 L141.054609,131.72144 L141.054609,136.087738 L146.864988,136.087738 Z" id="$" fill="#CFCFCF" fill-rule="nonzero"></path>
                            <g id="Pie-Chart" transform="translate(226.535019, 22.232185)">
                                <path d="M69.5667699,29.7090094 L74.7828815,0.139481971 C81.7357088,1.36492878 88.038962,5.00251669 92.5770333,10.4088997 C97.1153757,15.8150116 99.6046863,22.6514439 99.6046863,29.7090094 L69.5667699,29.7090094 Z" id="Bg-2" stroke="#E0E0E0" stroke-width="4"></path>
                                <path d="M63.7469558,34.3016437 L93.7848722,34.3016437 C93.7848722,50.7730905 80.2254222,64.3272585 63.7469558,64.3272585 C47.2687607,64.3272585 33.7090395,50.7730905 33.7090395,34.3016437 C33.7090395,17.8301969 47.2687607,4.27602889 63.7469558,4.27602889 C65.4956003,4.27602889 67.2409915,4.4286 68.9630674,4.73211624 L63.7469558,34.3016437 Z" id="Stork-4" stroke="#E0E0E0" stroke-width="4"></path>
                                <path d="M26.7428737,13.3658253 C26.7428737,20.7475028 20.7562742,26.7316506 13.3715724,26.7316506 C5.98659954,26.7316506 0,20.7475028 0,13.3658253 C0,5.98414782 5.98659954,-1.13686838e-13 13.3715724,-1.13686838e-13 C20.7562742,-1.13686838e-13 26.7428737,5.98414782 26.7428737,13.3658253 Z" id="BG" stroke="#E0E0E0" stroke-width="4"></path>
                                <path d="M69.5667699,29.7090094 L74.7828815,0.139481971 C81.7357088,1.36492878 88.038962,5.00251669 92.5770333,10.4088997 C97.1153757,15.8150116 99.6046863,22.6514439 99.6046863,29.7090094 L69.5667699,29.7090094 Z" id="Stork-3" fill="#F2F2F2" fill-rule="nonzero"></path>
                                <path d="M63.7469558,34.3016437 L93.7848722,34.3016437 C93.7848722,50.7730905 80.2254222,64.3272585 63.7469558,64.3272585 C47.2687607,64.3272585 33.7090395,50.7730905 33.7090395,34.3016437 C33.7090395,17.8301969 47.2687607,4.27602889 63.7469558,4.27602889 C65.4956003,4.27602889 67.2409915,4.4286 68.9630674,4.73211624 L63.7469558,34.3016437 Z" id="Stoke-2" fill="#F2F2F2" fill-rule="nonzero"></path>
                                <path d="M26.7428737,13.3658253 C26.7428737,20.7475028 20.7562742,26.7316506 13.3715724,26.7316506 C5.98659954,26.7316506 0,20.7475028 0,13.3658253 C0,5.98414782 5.98659954,-1.13686838e-13 13.3715724,-1.13686838e-13 C20.7562742,-1.13686838e-13 26.7428737,5.98414782 26.7428737,13.3658253 Z" id="Stroke" fill="#F2F2F2" fill-rule="nonzero"></path>
                            </g>
                            <path d="M249.420682,162.905295 L249.420682,221.07391 L234.553137,221.07391 L234.553137,162.905295 L249.420682,162.905295 Z M194.867041,106.233664 L194.867041,221.07391 L179.999225,221.07391 L179.999225,106.233664 L194.867041,106.233664 Z M223.748141,138.256253 L223.748141,221.07391 L208.880596,221.07391 L208.880596,138.256253 L223.748141,138.256253 Z M278.760496,180.25206 L278.760496,221.07391 L263.89268,221.07391 L263.89268,180.25206 L278.760496,180.25206 Z M307.661929,189.739924 L307.661929,221.07391 L292.794113,221.07391 L292.794113,189.739924 L307.661929,189.739924 Z M332.174942,182.434938 L332.174942,221.07391 L317.307126,221.07391 L317.307126,182.434938 L332.174942,182.434938 Z" id="Graph" fill="#E0E0E0" fill-rule="nonzero"></path>
                            <polygon id="Up" fill="#5AB8B8" fill-rule="nonzero" points="297.373528 124.721516 250.099129 150.090866 193.885225 64.1242278 199.610747 60.8202367 181.225039 48.8459792 182.407068 70.7487406 187.225194 67.9680441 247.524419 160.183323 294.80885 134.809095 325.11218 180.989632 331.53201 176.77726"></polygon>
                        </g>
                    </g>
                </g>
                <g id="Master/Character/Standing" transform="translate(379.000000, 203.500000) scale(-1, 1) translate(-379.000000, -203.500000) translate(287.000000, 41.000000)" fill-rule="nonzero">
                    <g>
                        <g id="Lower-Body" transform="translate(56.347257, 125.278483)">
                            <g id="Lower-Body/Jeans">
                                <g id="shoe-2" transform="translate(80.457382, 170.393805)">
                                    <polygon id="SKIN" fill="#FFFFFF" points="0.651699102 0.858250818 2.84021003 15.8214007 24.3394596 18.0443399 21.0059456 2.62830868"></polygon>
                                    <path d="M24.4099185,18.5866426 L2.73247849,16.4563661 C2.46916342,16.4303342 2.25731941,16.2280447 2.21885157,15.9658276 L0.00613811831,0.82909564 C-0.0399149286,0.514001272 0.178159793,0.221142481 0.492945913,0.175044338 C0.808273834,0.130844354 1.10003343,0.347505626 1.14635738,0.662328826 L3.29378386,15.3524512 L23.7302298,17.3612455 L20.4694031,2.77823359 C20.3997818,2.46747787 20.5953718,2.15916265 20.9055526,2.0894731 C21.2173588,2.01978356 21.5245597,2.21583625 21.5936393,2.5263208 L25.0283839,17.8867644 C25.0690189,18.0673606 25.0202569,18.256363 24.8978099,18.3949286 C24.7878244,18.5191224 24.6304314,18.5896255 24.4662658,18.5896255 C24.4475737,18.5896255 24.4286107,18.5885408 24.4099185,18.5866426 Z" id="path-6" fill="#004849"></path>
                                    <path d="M1.8667083,14.0664214 C1.93660057,13.7906461 2.20750085,13.6162866 2.48734083,13.6661811 C2.7536358,13.7141774 3.09090664,13.778986 3.48777555,13.8557258 C5.92100182,14.3242999 10.9838571,15.2996824 15.7817719,15.3034787 L15.7939624,15.3034787 C18.6205358,15.3034787 21.1063168,14.5295722 22.7934837,13.1235788 C22.9275793,13.0118586 23.1069153,12.9722685 23.2764989,13.0156549 C31.5113254,15.1616591 37.4611082,16.7121837 41.8702811,19.6556857 C42.6450558,20.1733407 45.439934,22.4316074 44.9566479,24.0287725 C44.7328843,24.7674274 43.9369793,25.141907 42.5906049,25.141907 C37.6753903,25.141907 27.0856277,25.1692948 17.7425481,25.1936997 C10.1825341,25.2134947 3.65383741,25.2305782 1.19568832,25.2305782 C0.935894954,25.2305782 0.701566216,25.1126212 0.535504347,24.8986715 C-0.432422338,23.6523947 1.14394637,16.9079652 1.8667083,14.0664214" id="path-23" fill="#009192"></path>
                                    <path d="M1.29475655,27.6185976 L43.7816721,27.6185976 C44.4876382,27.6185976 45.0603214,27.0458959 45.0603214,26.3389673 L45.0603214,25.9162203 C45.0603214,25.2092917 44.4876382,24.6363189 43.7816721,24.6363189 L1.29475655,24.6363189 C0.588790431,24.6363189 0.0161072485,25.2092917 0.0161072485,25.9162203 L0.0161072485,26.3389673 C0.0161072485,27.0458959 0.588790431,27.6185976 1.29475655,27.6185976" id="Fill-47" fill="#004849"></path>
                                    <path d="M31.7154759,18.1251731 C31.9308416,18.1251731 32.1372676,18.0039621 32.2358753,17.7962493 C33.1398695,15.8959212 34.8766112,16.3609701 35.0719303,16.4208977 C35.3747968,16.5128228 35.6968972,16.3433443 35.7911705,16.0407236 C35.8851729,15.7375605 35.7185692,15.4162293 35.4167863,15.3202367 C34.4317929,15.0073117 32.2813865,15.0187006 31.1956182,17.3005587 C31.0588136,17.5882653 31.1807187,17.9321032 31.4681439,18.0690418 C31.5480595,18.1072762 31.6323095,18.1251731 31.7154759,18.1251731" id="path-25" fill="#004849"></path>
                                    <path d="M26.6276437,16.7362361 C26.8430094,16.7362361 27.0497063,16.6150251 27.1483139,16.4073123 C28.0523082,14.5069841 29.7890498,14.972033 29.984098,15.0319606 C30.2872354,15.1241569 30.6093359,14.9544073 30.7033382,14.6517865 C30.7973406,14.3486234 30.630737,14.0272923 30.3289541,13.9312997 C29.3428771,13.6186458 27.1930125,13.6303059 26.1080569,15.9116216 C25.9712523,16.1993283 26.0931574,16.5431662 26.3805826,16.6801048 C26.4604982,16.7183391 26.5444773,16.7362361 26.6276437,16.7362361" id="path-26" fill="#004849"></path>
                                </g>
                                <g id="shoe-1" transform="translate(0.000000, 170.563129)">
                                    <polygon id="SKIN" fill="#FFFFFF" points="42.5239978 0.649296333 41.8802003 15.7689113 22.9450485 17.3935442 23.2341067 2.21247491"></polygon>
                                    <path d="M22.9008257,17.9672319 C22.7550814,17.9672319 22.6142132,17.9119141 22.5069367,17.8113117 C22.3880115,17.6998627 22.3219118,17.543129 22.3247951,17.3798873 L22.6009391,2.19488786 C22.6068989,1.87653951 22.8786119,1.62110156 23.1874382,1.62896536 C23.5054751,1.634931 23.7587669,1.89741925 23.753078,2.21603877 L23.4884084,16.7627145 L41.3252953,15.2685924 L41.9613691,0.55189581 C41.9749141,0.234089789 42.2431054,-0.0140266859 42.5616841,0.000616253594 C42.879721,0.0144456965 43.1262403,0.283713084 43.1124244,0.601790271 L42.4546785,15.8258376 C42.4422171,16.1157135 42.2160154,16.3513564 41.9269648,16.3754901 L22.9487751,17.9650626 C22.9327919,17.9664184 22.9168088,17.9672319 22.9008257,17.9672319" id="path-1" fill="#004849"></path>
                                    <path d="M43.1936132,13.9847591 C43.1237209,13.7089837 42.8528206,13.5346243 42.5729807,13.5845187 C42.3064148,13.632515 41.9694148,13.6973236 41.572275,13.7740635 C39.1393197,14.2426375 34.0764644,15.21802 29.2785496,15.2218163 L29.2660882,15.2218163 C26.4397856,15.2218163 23.9540047,14.4479098 22.2665669,13.0419165 C22.1327422,12.9301963 21.9531353,12.8906061 21.7835517,12.9339926 C13.548996,15.0799967 7.59921326,16.6305213 3.19004038,19.5740233 C2.41499469,20.0916784 -0.379612556,22.349945 0.103673536,23.9471101 C0.327437163,24.6857651 1.12334217,25.0602447 2.46944564,25.0602447 C7.38493115,25.0602447 17.9746938,25.0876324 27.3177734,25.1120373 C34.8775165,25.1318324 41.4064841,25.1489158 43.8646332,25.1489158 C44.1241556,25.1489158 44.3587553,25.0309588 44.5248171,24.8170092 C45.4927438,23.5707323 43.9163751,16.8263029 43.1936132,13.9847591" id="path-2" fill="#009192"></path>
                                    <path d="M43.7655649,27.5369353 L1.2786493,27.5369353 C0.572412283,27.5369353 0,26.9642336 0,26.257305 L0,25.8345579 C0,25.1276293 0.572412283,24.5546565 1.2786493,24.5546565 L43.7655649,24.5546565 C44.4715311,24.5546565 45.0439433,25.1276293 45.0439433,25.8345579 L45.0439433,26.257305 C45.0439433,26.9642336 44.4715311,27.5369353 43.7655649,27.5369353" id="path-3" fill="#004849"></path>
                                    <path d="M13.3448456,18.0435108 C13.1294799,18.0435108 12.9230538,17.9222998 12.8244461,17.714587 C11.9204519,15.8142588 10.1837103,16.2793077 9.98839116,16.3392353 C9.68552465,16.4311604 9.36315332,16.261682 9.26915092,15.9590612 C9.17514853,15.6558981 9.3414813,15.3345669 9.6435351,15.2385743 C10.6285285,14.9256493 12.7789349,14.9370383 13.8644323,17.2188963 C14.0012369,17.506603 13.8793318,17.8504409 13.5921775,17.9873795 C13.5122619,18.0256138 13.428012,18.0435108 13.3448456,18.0435108" id="path-4" fill="#004849"></path>
                                    <path d="M18.4325424,16.6545737 C18.2171767,16.6545737 18.0107506,16.5333627 17.9121429,16.3256499 C17.0078778,14.4253218 15.2711362,14.8903707 15.0763589,14.9502982 C14.7732215,15.0424945 14.4508501,14.8727449 14.3568477,14.5701242 C14.2628453,14.2669611 14.429449,13.9456299 14.7312319,13.8496373 C15.7173089,13.5369834 17.8671735,13.5486435 18.9521291,15.8299593 C19.0889337,16.1176659 18.9670286,16.4615038 18.6798743,16.5984424 C18.5999587,16.6366768 18.5157088,16.6545737 18.4325424,16.6545737" id="path-5" fill="#004849"></path>
                                </g>
                                <g id="pant" transform="translate(3.250803, 0.000000)">
                                    <path d="M14.1607701,0.799762591 L0,179.536364 C13.9619293,180.679598 28.8067226,180.514187 44.1998181,179.536364 C44.1998181,179.536364 46.6392751,30.1439423 47.9791478,29.9923608 C50.4874135,29.7092639 62.8087707,179.536364 62.8087707,179.536364 C76.7349412,181.79463 90.394004,181.106683 103.97288,179.536364 C103.97288,179.536364 93.6391184,47.1782908 75.9506849,0.13188185 C47.9937764,1.37544705 14.1607701,0.799762591 14.1607701,0.799762591" id="path-10" fill="#004849"></path>
                                    <path d="M29.609373,6.6253205 C29.2769784,6.45313038 28.8681899,6.58274751 28.6964391,6.91519647 C24.2070797,15.5824608 14.5158933,14.7627274 14.0938307,14.7217814 C13.7189047,14.6854452 13.3900317,14.9579666 13.3534602,15.3305481 C13.3168887,15.7031295 13.5891434,16.034765 13.9613604,16.0713723 C13.9803234,16.0732705 14.3159689,16.1028275 14.8845886,16.1028275 C17.6336846,16.1028275 25.8221872,15.4099996 29.8986945,7.5391484 C30.0709871,7.2069706 29.9414968,6.79778179 29.609373,6.6253205" id="path-21" fill="#FFFFFF"></path>
                                    <path d="M79.3273756,13.4447001 C78.9286104,13.4842903 69.5245782,14.3108029 65.1695854,5.63811521 C65.002169,5.30539509 64.6058419,5.17604912 64.2845542,5.34823924 C63.9624537,5.52042937 63.836756,5.92961818 64.0036306,6.26206714 C67.9563365,14.1337318 75.8950691,14.8257463 78.560186,14.8257463 C79.1109262,14.8257463 79.4365484,14.7959181 79.4549696,14.7942911 C79.8155379,14.7576837 80.0788529,14.4263194 80.0441777,14.0540091 C80.0089607,13.6816988 79.6871311,13.4091775 79.3273756,13.4447001" id="path-22" fill="#FFFFFF"></path>
                                </g>
                            </g>
                        </g>
                        <g id="Upper-Body" transform="translate(0.000000, 32.811031)">
                            <g id="Upper-Body/Say-Hi">
                                <g id="hand2" transform="translate(148.997571, 106.790301)">
                                    <path d="M0.576873455,3.00747626 C1.91241181,7.35751396 6.2091611,22.4218448 5.15048282,26.8998726 C3.81413176,32.5547589 3.1593658,36.5102507 5.05675133,37.1336603 C7.17194068,37.8281152 8.4663022,34.8667163 9.3521461,34.3894649 C9.67966453,34.2132073 10.1689104,34.9328807 11.4120718,36.4752703 C13.9428222,39.6153674 16.2563105,41.9186475 17.9440192,40.841578 C19.2026219,40.0386568 18.2032708,38.3614979 18.2032708,38.3614979 C18.2032708,38.3614979 20.606969,41.7125617 22.6820651,40.863 C23.6746437,40.4565229 24.3061122,39.7338667 22.886053,37.4796675 C23.9986404,39.1535724 26.0396031,39.8306728 26.9761053,38.5551101 C27.2597379,38.1686992 27.7611743,37.3270013 26.4435154,34.9559298 C28.0721678,36.5224531 29.4052681,34.0011559 28.8355648,32.2228522 C27.5076117,28.0745617 24.2161733,25.9055085 21.5567453,21.8027738 C19.1362514,18.0688242 16.1341345,0.562105342 16.1341345,0.562105342" id="SKIN" fill="#FFFFFF"></path>
                                    <path d="M29.1385939,32.0640306 C27.8577774,27.6131193 23.5577773,24.9958295 21.4978516,21.0370837 C19.6527498,17.4910518 17.6131416,5.34256413 16.7018331,0.464838261 C16.5777608,-0.257817922 15.4410632,-0.0956609246 15.5662192,0.659806289 C16.7435518,7.24397694 17.889189,13.845231 20.0913374,20.1856238 C20.6526427,21.8256331 21.7292004,23.2408461 22.8092798,24.5673879 C24.8071694,27.0412312 27.185132,29.1885911 28.2243054,32.2324244 C28.6837523,33.0825284 28.1964027,35.6694477 26.8993322,34.6552885 C26.3233982,33.8816532 22.6971271,28.8141115 21.7942165,30.0359834 C21.6723114,30.2556275 21.7514143,30.5327587 21.9708435,30.654512 C23.6794115,31.7866282 24.8594531,33.704311 26.0581868,35.344049 C28.0560764,38.5465141 25.4649152,40.0710068 23.3036728,37.2039735 C22.8122597,36.5868007 19.3536759,31.270329 18.6907829,32.2527618 C18.5271592,32.4295617 18.5396206,32.7064217 18.717873,32.8680364 C20.1712529,34.3014175 21.3326024,36.0618242 22.4682164,37.7552531 C22.8165941,38.3119559 23.2229446,39.0251213 23.2148175,39.6490732 C23.2112958,39.9723026 22.9452718,40.1981835 22.6348201,40.3383761 C21.7798588,40.7570557 20.9276065,40.2822448 20.1563534,39.6848671 C19.0743777,39.1316894 15.3608768,33.2699037 14.5481759,34.2173562 C14.3815723,34.3946984 14.3929501,34.6750836 14.5728279,34.8383253 C15.7601838,35.9783052 16.8085678,37.3582667 17.8027718,38.6848086 C18.1351665,39.3288267 18.2676367,40.1838117 17.5229319,40.485619 C15.7011275,41.0922163 13.52932,38.058145 12.3961441,36.8281381 C11.8738484,36.1984917 11.3068541,35.4677005 10.7891637,34.8228688 C10.3928366,34.3721917 9.83369843,33.5172067 9.06677975,33.9163624 C7.88755085,34.7027425 7.2490389,36.477521 5.7739869,36.6621847 C4.76379977,36.724824 4.51484242,35.8175041 4.4980466,34.8863216 C4.5029228,32.2522195 5.33973376,29.6376412 5.93192176,27.0748557 C6.23370467,25.6948943 6.12778266,24.2707328 6.00235583,22.9675112 C5.17313009,16.0709578 3.23402591,9.4181823 1.12777626,2.83807914 C0.909159733,2.16477507 -0.182026577,2.44326209 0.0262957347,3.17703607 C1.77251891,9.73327666 4.0066335,16.2892461 4.78140829,23.0315062 C4.90114621,24.4307205 4.92065103,25.9120979 4.5969252,27.2055575 C4.21495581,29.5874756 1.75111779,36.8964718 5.02630214,37.7172899 C7.03177688,38.2813142 8.3364326,36.2364548 9.46960846,34.9958725 C11.4883573,37.1047269 13.7937187,41.1307218 16.8711458,41.6136676 C17.8336545,41.6768492 18.8896237,41.0569648 19.0440369,40.0498559 C19.8629684,40.7917649 20.814912,41.489745 21.9933282,41.4986934 C23.1332766,41.5041167 24.4159894,40.5892042 24.1930384,39.3345212 C26.6644617,40.6721808 28.4426511,38.2598921 27.4977509,35.9764071 C29.3374347,35.6721593 29.5037674,33.4968693 29.1385939,32.0640306" id="path-9" fill="#009192"></path>
                                </g>
                                <g id="hand1" transform="translate(-0.000009, 10.725402)">
                                    <path d="M16.5915132,0.664825083 C14.9222257,-0.230292388 14.4313544,3.59910747 16.3311781,6.56267573 C13.84025,4.56147399 7.85823015,-0.316251865 5.79613725,0.848132993 C3.71237233,2.0247203 6.81120058,5.39395222 6.81120058,5.39395222 C4.68436252,4.41829859 2.14006712,3.03698129 1.52187269,4.69868376 C0.855728909,6.48946103 4.47793651,8.66746271 4.47793651,8.66746271 C1.78572956,7.80949492 0.992262648,8.0464936 0.637925088,9.14037542 C0.070389009,10.8921049 3.68040609,12.6590196 3.68040609,12.6590196 C1.97617245,12.4621534 0.556655005,14.2380165 4.72526846,16.9832965 C9.32325884,20.011131 18.8529887,26.6739397 26.4241096,36.2073067 C27.5058145,37.5691001 40.052019,34.6760349 47.7848674,27.822868 C32.6428965,17.1999578 18.751672,1.82297313 16.5915132,0.664825083" id="SKIN" fill="#FFFFFF"></path>
                                    <path d="M44.5299464,24.7316893 C33.7177746,16.6669548 23.3658622,5.91388504 16.8639847,0.156226983 C14.4396982,-0.728043865 14.1948043,2.32744952 14.8409015,4.64727077 C10.9523989,1.63326572 7.32368972,-0.677335907 5.51299228,0.346042867 C4.11541776,1.10313707 4.38198363,2.76944936 5.08767885,3.97505138 C1.59035628,2.11377107 -0.684935138,4.82596887 2.14461824,7.57450285 C1.118448,7.53979366 0.428735896,7.91752727 0.0898396499,8.96259929 C-0.368252715,10.3767276 1.0182149,11.6544597 2.15111985,12.4275526 C0.838608013,13.5884124 1.01388049,15.1017873 4.40853186,17.464995 C12.6222282,22.873663 19.4589385,28.788597 24.7287615,35.0451996 C30.3198724,36.128506 7.92237933,17.6694538 5.0418967,16.501815 C2.54121625,14.8162499 1.7141577,13.2659965 3.55031978,13.2280333 C3.55031978,13.2280333 7.17496547,14.7012758 7.17496547,14.7012758 C7.64958276,14.9011248 7.97845569,14.1746723 7.51602892,13.9496049 C7.51196542,13.9468932 3.93743628,12.1444558 3.93391457,12.1412018 C2.90286812,11.6349358 0.87463775,10.279108 1.18590217,9.31836848 C1.34302433,8.83379565 1.50637719,8.33349522 4.24734619,9.19932681 L9.03767577,11.9305062 C9.53017247,12.2203822 9.98718123,11.4559665 9.50037344,11.1582267 C7.8912258,9.85934375 1.76969226,7.21222568 2.06172276,4.90026823 C2.71350883,3.73886619 5.15161131,5.37806192 6.54458053,5.90575008 C6.54458053,5.90602124 11.2276336,8.65618222 11.2276336,8.65618222 C11.4283707,8.7735969 11.6892477,8.71475398 11.8181962,8.51788779 C11.9514791,8.31451363 11.8945901,8.04144992 11.6914149,7.90803648 L7.19121949,4.95423017 C6.47333376,4.03443664 4.89154705,2.18617227 6.07917386,1.35044005 C7.75333756,0.405428121 13.8022698,5.26932454 15.790136,6.86757427 C16.1030259,7.3206919 16.3487324,8.03684011 16.3221842,8.5807982 C15.7299962,10.7156845 15.9702847,13.5699731 17.925372,14.9428843 C18.2304057,15.1497836 18.580138,14.685277 18.2832313,14.4520746 C18.1756839,14.3647593 18.0337321,14.2945274 17.9871373,14.1657238 C17.93079,14.0108883 16.2067807,11.7954658 17.0625546,9.73759042 C17.2901109,9.19037835 17.6271108,8.57727305 17.4735104,7.99941926 C17.3697555,7.3624514 17.1313633,6.80574853 16.8160354,6.25148615 C15.4959383,4.27767213 15.2933049,0.949928539 16.3192043,1.17309778 C22.6883407,7.00559754 33.0519017,17.553395 43.8334618,25.6503982 C44.4080412,26.1056852 45.1424519,25.1793837 44.5299464,24.7316893" id="path-7" fill="#009192"></path>
                                </g>
                                <path d="M123.973773,17.9982878 C123.873269,18.439203 123.727253,18.9056077 123.511075,19.3828591 C123.420323,19.5829792 123.223379,19.7014786 123.017224,19.7014786 C122.942455,19.7014786 122.866332,19.685751 122.793731,19.6529399 C122.521205,19.5292885 122.400384,19.2079573 122.523914,18.9351647 C122.860373,18.1921711 123.002866,17.4719554 123.054879,16.8734931 C123.222837,6.18170674 86.7908136,3.24688203 85.648698,18.3269404 C85.8131345,18.981534 86.0902655,19.7399841 86.5543177,20.2679434 C86.751804,20.4927396 86.7301319,20.8354929 86.5055556,21.0334437 C86.4026135,21.124013 86.2750195,21.1684842 86.1476964,21.1684842 C85.9973467,21.1684842 85.8478097,21.1063873 85.7408041,20.9846339 C85.3249722,20.5117212 85.0329417,19.9194957 84.8254321,19.3392014 C81.2693242,20.1573079 76.5914182,21.731695 73.2772243,24.1320524 C65.7933332,29.5521094 58.7542605,39.1158471 56.6843115,42.050943 C57.4154713,42.72262 58.1260427,43.4127363 58.8073569,44.1286134 C59.5986566,44.9578376 60.3593446,45.803603 61.094568,46.6919413 C61.224871,46.8492173 61.2029281,47.0824197 61.0458059,47.2128503 C60.89356,47.3389423 60.6703381,47.3224012 60.5381388,47.1789546 L60.5327208,47.1724466 C59.7782635,46.3500015 58.9793786,45.5468092 58.1642397,44.7753432 C57.4886144,44.1334944 56.0726186,42.9333156 56.0726186,42.9333156 L31.7468575,24.7088216 L13.9489803,44.5459371 C13.9489803,44.5459371 42.8250534,73.0836705 56.1276114,73.8448322 C62.6690404,74.2187694 69.2386429,68.1343569 74.5523519,63.8271634 C72.9201777,82.6148683 73.3311334,97.2895342 73.3311334,97.2895342 L137.017079,96.9513907 C137.017079,96.9513907 133.984622,78.0679644 132.574315,59.916685 C132.463787,58.4941505 136.097373,73.605393 136.097373,73.605393 L146.271574,122.412209 L171.057324,115.279741 C171.057324,115.279741 156.730492,56.3242838 154.8583,49.8125144 C147.082379,22.7645646 128.443898,19.7256123 128.383487,19.5810811 C128.383487,19.5810811 126.03126,18.5747857 123.973773,17.9982878 Z" id="t-shirt" fill="#009192"></path>
                                <g id="neck" transform="translate(90.774732, -0.000073)">
                                    <path d="M7.46687423,0.549644613 C7.46687423,0.549644613 7.4443895,9.70175299 7.4443895,14.3370569 C7.4443895,17.7480483 4.49997441,16.9293995 0.350594873,18.3212922 C1.31201995,23.1355654 4.18220838,26.2743066 16.4886661,26.4554451 C24.271631,26.5701482 27.3617904,24.1640963 28.8590562,19.1689557 C24.643848,17.1718215 21.9462231,17.7480483 21.9462231,14.3370569 C21.9462231,9.70175299 21.9237383,0.549644613 21.9237383,0.549644613" id="SKIN" fill="#FFFFFF"></path>
                                    <path d="M28.9671996,18.9399022 C28.096797,18.5179686 27.1960536,18.1603012 26.2888087,17.8435799 C25.3877943,17.5200794 24.456981,17.2565065 23.6618887,16.8418944 C23.2709796,16.6295717 22.9299161,16.369524 22.7039853,16.0335499 C22.4775127,15.6964911 22.387032,15.2740152 22.3342064,14.8431331 C22.3304138,14.6150829 22.3084709,14.4108952 22.316327,14.1646769 L22.3241831,13.4479864 L22.3398953,12.0146053 L22.4655931,0.548370135 C22.4655931,0.544573817 22.4655931,0.537523513 22.4655931,0.533727195 C22.4607169,0.234360432 22.2144685,-0.00480758024 21.9151237,-7.70690207e-15 C21.6160498,0.0046832139 21.3771158,0.251443862 21.3819186,0.55108179 L21.5450739,12.0148765 L21.5656624,13.4479864 L21.5756857,14.1646769 C21.5735185,14.3962523 21.6022339,14.6685025 21.615508,14.9177036 C21.6891929,15.4272237 21.8146197,15.9622333 22.136991,16.4205031 C22.4582788,16.8749766 22.9109531,17.1897998 23.3614603,17.4192058 C24.2762905,17.863375 25.204124,18.0916964 26.1045965,18.3918766 C27.0075071,18.6817526 27.8919964,19.0079647 28.7507503,19.3976296 L28.7526466,19.3984431 C28.8772607,19.4548456 29.0246305,19.4019683 29.0844994,19.2783168 C29.145452,19.1522248 29.0928973,19.0009144 28.9671996,18.9399022" id="path-4" fill="#009192"></path>
                                    <path d="M7.47296948,0.0120533295 C7.17389558,0.00883204677 6.92845993,0.248813556 6.92520912,0.548451485 C6.88267778,4.34205749 6.87590527,8.13593466 6.89459739,11.9295407 L6.8994736,13.3523463 C6.8967646,13.8165817 6.91356041,14.3298981 6.88999209,14.7271556 C6.86154756,15.1433947 6.76375256,15.522213 6.56436996,15.8077503 C6.37284346,16.0984398 6.05589014,16.3110336 5.66931545,16.4756311 C4.88641365,16.7961487 3.93799178,16.9623732 3.01286734,17.174967 C2.08069948,17.3834933 1.14203003,17.6364908 0.235326806,17.9770747 C0.0597834277,18.0440526 -0.0393660732,18.2368513 0.0148139819,18.4201592 C0.0717030399,18.6126867 0.273794645,18.7225088 0.46586294,18.665564 C1.35685395,18.4036181 2.26491167,18.2159715 3.19003612,18.051374 C3.65273379,17.9673127 4.12003677,17.8911152 4.59573765,17.7978343 C5.07062584,17.704011 5.55635003,17.5990699 6.04884673,17.4051865 C6.29428238,17.3062111 6.54188523,17.1858136 6.77865208,17.024199 C7.01541892,16.8631266 7.23538994,16.6521598 7.41012062,16.4102802 C7.76716718,15.9208263 7.90911893,15.3445996 7.95869368,14.8215212 C7.98713821,14.5552366 7.9863255,14.2919349 7.98822181,14.0636135 L7.99282711,13.3526174 L8.00230862,11.930083 C8.03319125,8.13701932 8.03888016,4.34422682 8.00881023,0.550891974 C8.00610122,0.256406191 7.76852168,0.0153400199 7.47296948,0.0120533295" id="path-3" fill="#009192"></path>
                                </g>
                                <g id="t-shirt-part" transform="translate(97.137064, 29.760744)" fill="#FFFFFF">
                                    <path d="M17.7249779,2.44157458 C17.7249779,1.23678606 16.7491952,0.259776594 15.5453143,0.259776594 C14.3417044,0.259776594 13.3656507,1.23678606 13.3656507,2.44157458 C13.3656507,3.45898772 14.0624062,4.31126103 15.0035138,4.55259837 L15.0035138,14.0734919 C15.0035138,14.3731298 15.2462404,14.615823 15.5453143,14.615823 C15.8446591,14.615823 16.0871149,14.3731298 16.0871149,14.0734919 L16.0871149,4.55259837 C17.0282224,4.31126103 17.7249779,3.45898772 17.7249779,2.44157458" id="path-2"></path>
                                    <path d="M4.35905634,2.18179799 C4.35905634,0.9767383 3.38327354,-8.52651283e-14 2.17966362,-8.52651283e-14 C0.975782793,-8.52651283e-14 1.687539e-13,0.9767383 1.687539e-13,2.18179799 C1.687539e-13,3.19921112 0.696484609,4.05148444 1.63786307,4.29282177 L1.63786307,20.6053276 C1.63786307,20.9049655 1.88031881,21.1476587 2.17966362,21.1476587 C2.47873752,21.1476587 2.72146417,20.9049655 2.72146417,20.6053276 L2.72146417,4.29282177 C3.66257173,4.05148444 4.35905634,3.19921112 4.35905634,2.18179799" id="path-1"></path>
                                </g>
                            </g>
                        </g>
                        <g id="Head" transform="translate(73.955775, 0.000000)">
                            <g id="Head/Curly-Hair-Long">
                                <g id="Curly-Hair-Long" transform="translate(0.055684, 0.135654)">
                                    <path d="M44.6089989,22.3096402 C42.9844099,8.82186591 33.5007331,7.97555824 27.1026103,9.14021427 C22.0037254,10.0681428 15.4807177,14.2877498 16.0580062,22.7771296 C13.505042,21.9476342 11.6407063,23.5011416 11.3093953,25.5205115 C10.9333857,27.8121315 12.1350993,31.688443 15.9149708,31.0208334 C16.2790608,37.2562851 21.9446692,46.3088758 34.310454,45.4029117 C43.674122,44.7168628 46.0878435,34.5863892 44.6089989,22.3096402" id="SKIN" fill="#FFFFFF"></path>
                                    <path d="M21.0965888,2.8963835 C21.682817,-0.373059491 29.7228662,-1.21150336 31.4818217,2.14172979 C39.9775252,-1.07022611 46.0505676,6.95708756 44.5470711,12.7049837 C48.3995439,14.2137488 48.18472,22.0916502 47.2877691,22.0916502 C49.8867864,22.7492267 49.4251723,27.4965219 47.7810785,27.6462053 C50.3215813,29.7404168 49.9247124,36.9488105 47.616913,37.6516716 C54.5064488,51.5944617 36.1307413,55.6191008 37.2842347,45.3676873 C32.7095417,46.7544279 27.0095291,45.8698858 23.1600362,43.531083 C23.2683963,45.2342738 22.5174521,47.1583165 22.1151738,48.2341783 C19.7200361,54.6397864 5.09142123,54.6397864 1.84061791,48.6741444 C-1.4101854,42.7085023 -0.0520539587,38.0627586 3.55173242,35.7844257 C-1.47455131,32.1773816 -0.526129442,24.1085796 4.34655383,23.1692621 C2.22513376,17.4341108 4.05398153,11.3052271 10.4009041,11.8166453 C10.368667,4.96049564 16.1036258,1.93727097 21.0965888,2.8963835 Z M29.5727874,12.107606 C29.5727874,13.2123344 26.5040292,16.9915686 21.9892052,16.5897013 C21.9892052,16.5897013 22.7791504,18.8230207 21.1989891,21.4286505 C17.8479527,25.7588931 15.8944908,21.9167485 13.2109526,23.4943896 C11.1867858,24.7699523 11.4538935,28.0505131 13.0202389,29.7360781 C13.728914,30.4373122 14.6719178,30.6897674 15.820535,30.4866644 C15.9719683,30.4600901 16.1293613,30.499138 16.2512664,30.5954018 C16.8808387,33.6123896 17.7038337,37.7623072 21.5666008,41.0344618 C26.1226016,45.1876333 36.419521,47.121586 41.0481231,41.4995107 C44.3953669,37.9014151 45.345956,28.2839866 43.6750431,20.0137086 C42.8003061,17.9623413 40.9673948,16.9175404 40.6236224,15.2468895 C36.8039285,16.5091651 31.6253988,16.2830131 29.5727874,12.107606 Z M14.3888,25.0344201 C15.6612186,24.1932646 16.3479508,25.6011561 15.0557564,26.596876 C14.7301343,26.8477041 14.4400001,27.6319148 14.0344624,27.5592425 C13.0670775,27.3856965 13.7250943,25.5290261 14.3888,25.0344201 Z" id="Combined-Shape" fill="#009192"></path>
                                </g>
                            </g>
                        </g>
                        <g id="Face" transform="translate(95.898698, 21.422078)" fill="#009192">
                            <g id="Face/Normal-Face-2">
                                <path d="M6.56776046,15.6972854 C6.84570415,15.4459149 7.27481018,15.4676082 7.52593474,15.745824 C7.54083425,15.762094 7.55519197,15.7799909 7.56819518,15.7976167 C7.57984389,15.8130731 7.63104405,15.8730007 7.67249179,15.9134044 C7.71502313,15.9589602 7.76432698,16.002889 7.81146363,16.0479025 C7.90980043,16.1360313 8.01409704,16.2211772 8.12326985,16.3014422 C8.34107367,16.4627857 8.57919501,16.6029783 8.82869416,16.7212065 C9.32579617,16.9647132 9.87464013,17.1108714 10.4397381,17.1754088 C11.5832082,17.3226517 12.7981959,17.2057793 13.8417038,16.6873108 L13.8417038,16.6873108 L13.8460382,16.6851415 C14.0256451,16.5956569 14.2437198,16.6691427 14.3331169,16.8491967 C14.4160124,17.016777 14.3566852,17.2187953 14.2025429,17.3177707 C13.6350069,17.6795056 13.0032674,17.9352147 12.3509395,18.093033 C11.6959027,18.2459704 11.0292171,18.3243372 10.3514246,18.2904415 C9.67038132,18.2565458 8.98148192,18.1212342 8.33403026,17.8549497 C8.00949173,17.7253325 7.69443471,17.5664295 7.39563171,17.3741732 C7.24609475,17.2784517 7.10062131,17.1745953 6.95812776,17.0626039 C6.88769369,17.0043033 6.81698872,16.9479009 6.74763825,16.8836347 C6.67449517,16.8177415 6.61733521,16.764593 6.52550002,16.6626348 L6.52550002,16.6626348 L6.51954021,16.6561268 C6.26841566,16.3779109 6.28981678,15.9486559 6.56776046,15.6972854 Z M10.984654,4.76367363 C11.1843075,4.76828344 11.3449514,4.92528829 11.3574128,5.12134098 L11.3574128,5.12134098 L11.3576837,5.12649313 C11.411051,6.0050695 11.4725454,6.89042501 11.5546282,7.76059525 C11.5990558,8.19256197 11.6491724,8.63239249 11.731797,9.02612486 C11.7469674,9.09635674 11.764305,9.1619788 11.7819135,9.21946589 C11.9888813,9.30434071 12.19612,9.40250264 12.4017334,9.5247983 C12.6211626,9.66010991 12.8446553,9.82199574 13.0372654,10.046792 C13.2331263,10.2656226 13.386185,10.5592949 13.4533682,10.8600175 C13.5197388,11.1653499 13.5208224,11.4359731 13.4739566,11.7318147 C13.42682,12.0241311 13.2997678,12.3316329 13.0957799,12.5748684 C12.8939592,12.820002 12.6344367,12.993548 12.3757269,13.1044547 C12.1145791,13.2153614 11.8531603,13.2701368 11.5979722,13.3005074 C11.3427842,13.3289798 11.0924723,13.3308779 10.8475785,13.3127098 C10.7335295,13.3051172 10.5834507,13.2907454 10.4742779,13.2644424 C10.3523728,13.2367835 10.2618921,13.2112939 10.1061244,13.1445872 C9.91378522,13.062424 9.82438813,12.8397971 9.90674181,12.6472696 C9.95496206,12.5339224 10.0522153,12.456369 10.1630135,12.428439 L10.1630135,12.428439 L10.3101123,12.392374 C10.3699813,12.377731 10.5000134,12.3823408 10.5975375,12.387493 C10.7077939,12.3948144 10.7787698,12.4002378 10.8865881,12.4005089 C11.0848871,12.4024071 11.2799353,12.387493 11.4644184,12.3552243 C11.8339264,12.2901445 12.1511506,12.1374783 12.3004166,11.9343753 C12.3773523,11.8326883 12.4239472,11.7141889 12.4423684,11.5677595 C12.4621441,11.4253976 12.4513081,11.242632 12.4139239,11.1165401 C12.3464697,10.8638138 12.1411273,10.6514911 11.8263412,10.4407955 C11.6724698,10.3374814 11.4996354,10.2414888 11.3146105,10.156614 L11.3146105,10.156614 L11.2460728,10.123803 L11.2035414,10.1037367 C11.1615519,10.0833993 11.1081845,10.048419 11.0840744,10.0272681 C11.058068,10.0050325 11.0317907,9.98008525 11.0095768,9.95540919 L11.0095768,9.95540919 L10.9648783,9.89846442 C10.8687087,9.75528901 10.8548928,9.68397248 10.8261773,9.60424981 C10.7814788,9.45619342 10.759265,9.33308426 10.7392184,9.2107886 C10.6655335,8.72919859 10.6416943,8.28231776 10.6186677,7.82892897 C10.5747819,6.92621886 10.5734274,6.03544004 10.5940158,5.13733975 C10.598892,4.92610179 10.7736227,4.75879265 10.984654,4.76367363 Z M1.82879358,6.1778833 C1.93932089,5.41265413 2.58921066,4.87330586 3.28027726,4.97336595 C3.97134386,5.07342603 4.44189764,5.7749313 4.33137033,6.54016048 C4.22084302,7.30566081 3.57095325,7.84473792 2.87961575,7.744949 C2.18882005,7.64488891 1.71826627,6.94311248 1.82879358,6.1778833 Z M16.2436682,4.50519863 C16.9347348,4.40513854 17.5843536,4.94448681 17.6948809,5.70971599 C17.8056791,6.47521633 17.3351254,7.1767216 16.6443297,7.27678168 C15.9529922,7.37684177 15.3031024,6.8374935 15.1925751,6.07226432 C15.0820478,5.30703515 15.5523306,4.60525872 16.2436682,4.50519863 Z M5.48583894,0.695241345 C5.9330953,0.654566513 6.3288806,0.984574984 6.36951564,1.43254047 C6.41015068,1.88023478 6.08046505,2.27640765 5.63293779,2.31681132 C5.61451657,2.31870947 5.59582445,2.31979414 5.57740324,2.3200653 L5.57740324,2.3200653 L5.56467092,2.32033647 C4.60866385,2.33904689 3.71523474,2.21566657 2.91147362,2.21810706 C2.50918671,2.21864939 2.12721732,2.2571549 1.76041835,2.35613032 C1.39389028,2.45646157 1.04117812,2.6042468 0.659208731,2.76694612 L0.659208731,2.76694612 L0.639703911,2.77508109 C0.406187873,2.87487001 0.136100299,2.76586146 0.0366798974,2.53211676 C-0.0361922767,2.36074013 0.00335916351,2.16956842 0.121471684,2.04049362 C0.454679023,1.67794529 0.888661264,1.39376379 1.36111135,1.20394791 C1.83274873,1.00952221 2.33364334,0.897802008 2.81584583,0.837060926 C3.29886102,0.776319843 3.76426769,0.768456043 4.20800234,0.752457275 C4.65200789,0.738085501 5.07623773,0.73266219 5.48583894,0.695241345 Z M14.4324289,0.0361734833 C14.9140896,-0.0104669908 15.4133588,-0.0156191362 15.9229222,0.0418679597 C16.4300475,0.100982049 16.9553232,0.227074028 17.4228971,0.473834676 C17.8926381,0.715443178 18.2932996,1.0568406 18.602126,1.44053985 C18.7809201,1.66262443 18.7457031,1.98802309 18.5238358,2.16699235 C18.3342056,2.31992972 18.0698069,2.31667573 17.8853238,2.17458499 L17.8853238,2.17458499 L17.8780095,2.16889051 C17.2376013,1.67536921 16.5885242,1.38223926 15.8272944,1.36786748 C15.4491176,1.36081718 15.0554995,1.42616808 14.6589015,1.51538154 C14.2620326,1.60513734 13.8613711,1.72987349 13.4636895,1.87684522 C13.0234766,2.03927338 12.5350434,1.81393481 12.3725032,1.37329079 C12.2102339,0.932646781 12.4353521,0.443464135 12.875565,0.281035972 C12.9224308,0.263952543 12.9744436,0.2501231 13.0215803,0.241445802 C13.4831943,0.159553807 13.9507682,0.0833562884 14.4324289,0.0361734833 Z" id="Normal-face-2"></path>
                            </g>
                        </g>
                    </g>
                </g>
                <g id="Seat" transform="translate(0.000000, 244.000000)" fill-rule="nonzero">
                    <g id="Seat/Bench-2">
                        <path d="M112.460592,33.2378223 L130.789939,100 L125.674893,100 L95.4101503,33.2378223 L112.460592,33.2378223 Z M35.3276769,33.2378223 L7.99848571,99.8813754 L0,99.8813754 L18.6829033,33.2378223 L35.3276769,33.2378223 Z" id="Combined-Shape" fill="#004849"></path>
                        <rect id="Rectangle" fill="#CFCFCF" x="3.74285714" y="0" width="123.802198" height="35.530086" rx="17.765043"></rect>
                    </g>
                </g>
                <g id="Master/Character/Sitting" transform="translate(25.000000, 87.000000)" fill-rule="nonzero">
                    <g>
                        <g id="Lower-Body-Sit" transform="translate(5.139489, 130.687419)">
                            <g id="Lower-Body-Sit/Sitting">
                                <g id="Sitting" transform="translate(0.000005, 0.000027)">
                                    <g id="shoe-2" transform="translate(98.114460, 100.028004)">
                                        <polyline id="SKIN" fill="#FFFFFF" points="0.536833111 0.541376287 4.20480499 14.2451563 23.2766358 15.8345101 22.2241226 2.54119143"></polyline>
                                        <path d="M23.2770145,16.375253 C23.2618665,16.375253 23.246989,16.3747118 23.2318411,16.3733589 L4.15973979,14.7845463 C4.01258812,14.7723704 3.87706792,14.7006682 3.78401612,14.5859447 C3.69150533,14.4712211 3.64930742,14.3234875 3.66797188,14.1771068 L0,0.473326834 C0.0378699162,0.176236178 0.313779305,-0.0334589567 0.60510716,0.00442145466 C0.901304005,0.0423018661 1.11121154,0.313146809 1.07361212,0.60942574 L4.81245485,13.7531168 L22.8958808,15.2594043 L21.7100114,2.37248832 C21.8030632,2.0886558 22.1079161,1.93334612 22.3924814,2.02696485 C22.6765058,2.11977186 22.8312315,2.42552089 22.7381797,2.70962398 L23.7906928,16.0026721 C23.717658,16.2264371 23.5088325,16.375253 23.2770145,16.375253" id="Fill-2" fill="#009192"></path>
                                        <path d="M3.42463062,13.5046213 C3.49441946,13.2294471 3.76491886,13.0554678 4.04434475,13.1052535 C4.31024566,13.1531452 4.64701741,13.2178124 5.04329903,13.294385 C7.47292466,13.7619375 12.528288,14.7351935 17.3191029,14.7389815 L17.3312753,14.7389815 C20.1536661,14.7389815 22.6357686,13.9667623 24.3204389,12.5638342 C24.4543361,12.4523576 24.6334067,12.4128537 24.8027393,12.4561456 C33.0253801,14.5974711 38.9663584,16.1446154 43.3690067,19.0817001 C44.142635,19.5982266 46.9333773,21.8515699 46.4505359,23.4452529 C46.2273739,24.1822975 45.4326466,24.5559607 44.0882646,24.5559607 C39.1803235,24.5559607 28.6062314,24.5832887 19.2769775,24.6076404 C11.7281507,24.6273923 5.20911517,24.6444385 2.7546036,24.6444385 C2.49519468,24.6444385 2.26121269,24.5267387 2.09539656,24.3132555 C1.1289022,23.0696957 2.70293822,16.3399701 3.42463062,13.5046213" id="Fill-4" fill="#009192"></path>
                                        <path d="M2.85325473,27.0275493 L45.2775693,27.0275493 C45.9824907,27.0275493 46.554056,26.4558257 46.554056,25.7504383 L46.554056,25.3286129 C46.554056,24.6232255 45.9824907,24.0517724 45.2775693,24.0517724 L2.85325473,24.0517724 C2.14860379,24.0517724 1.57676806,24.6232255 1.57676806,25.3286129 L1.57676806,25.7504383 C1.57676806,26.4558257 2.14860379,27.0275493 2.85325473,27.0275493" id="Fill-6" fill="#004849"></path>
                                        <path d="M33.2292284,17.5545243 C33.4442755,17.5545243 33.650396,17.4335775 33.7488578,17.2263176 C34.6515143,15.3301324 36.3856859,15.7941674 36.580716,15.8539644 C36.8831343,15.9456891 37.2047581,15.7765801 37.2988919,15.4746191 C37.3927552,15.172117 37.2263981,14.8514864 36.9250618,14.755703 C35.9415259,14.4434602 33.7943017,14.4548243 32.7101401,16.7317076 C32.5735379,17.018787 32.6952626,17.3618753 32.9822625,17.4985154 C33.0620598,17.5366664 33.1461851,17.5545243 33.2292284,17.5545243" id="Fill-8" fill="#004849"></path>
                                        <path d="M28.148898,16.1686424 C28.3639451,16.1686424 28.5703361,16.0476956 28.6687979,15.8404357 C29.5714544,13.9442505 31.305626,14.4082855 31.5003856,14.4680825 C31.8030744,14.5600778 32.1246982,14.3906982 32.2185615,14.0887372 C32.3124248,13.7862351 32.1460677,13.4656044 31.8447313,13.3698211 C30.8601135,13.0578489 28.7134303,13.0694836 27.6300802,15.3458257 C27.493478,15.6329051 27.6152027,15.9759934 27.9022026,16.1126335 C27.9819999,16.1507845 28.0658547,16.1686424 28.148898,16.1686424" id="Fill-10" fill="#004849"></path>
                                    </g>
                                    <g id="shoe-1" transform="translate(48.946974, 100.300175)">
                                        <polyline id="SKIN" fill="#FFFFFF" points="4.57371207 0.541376287 2.83169593 14.2451563 21.9035267 15.8345101 26.2610016 2.54119143"></polyline>
                                        <path d="M21.9039054,16.375253 C21.8887574,16.375253 21.87388,16.3747118 21.858732,16.3733589 L2.78663073,14.7845463 C2.63947906,14.7723704 2.50395886,14.7006682 2.41090706,14.5859447 C2.31839627,14.4712211 2.27619836,14.3234875 2.29486282,14.1771068 L4.03687896,0.473326834 C4.07474888,0.176236178 4.35065827,-0.0334589567 4.64198612,0.00442145466 C4.93818297,0.0423018661 5.1480905,0.313146809 5.11049109,0.60942574 L3.43934579,13.7531168 L21.5227718,15.2594043 L25.7468904,2.37248832 C25.8399422,2.0886558 26.144795,1.93334612 26.4293604,2.02696485 C26.7133848,2.11977186 26.8681104,2.42552089 26.7750586,2.70962398 L22.4175838,16.0026721 C22.3445489,16.2264371 22.1357234,16.375253 21.9039054,16.375253" id="Fill-14" fill="#009192"></path>
                                        <path d="M2.67123569,13.1052535 C2.9371366,13.1531452 3.27390835,13.2178124 3.67018997,13.294385 C6.0998156,13.7619375 11.1551789,14.7351935 15.9459938,14.7389815 L15.9581663,14.7389815 C18.780557,14.7389815 21.2626595,13.9667623 22.9473298,12.5638342 C23.081227,12.4523576 23.2602976,12.4128537 23.4296302,12.4561456 C31.652271,14.5974711 37.5932494,16.1446154 41.9958976,19.0817001 C42.7695259,19.5982266 45.5602682,21.8515699 45.0776973,23.4452529 C44.8542648,24.1822975 44.0595376,24.5559607 42.7151555,24.5559607 C41.0552493,24.5559607 38.7472215,24.5590866 36.0584298,24.5641661 C30.7971146,24.5741054 24.0778917,24.5915247 17.9038685,24.6076404 C10.3550417,24.6273923 3.83600611,24.6444385 1.38149454,24.6444385 C1.12208562,24.6444385 0.888103634,24.5267387 0.722287501,24.3132555 C-0.244206859,23.0696957 1.32982916,16.3399701 2.05152156,13.5046213 C2.1213104,13.2294471 2.3918098,13.0554678 2.67123569,13.1052535 Z" id="Fill-16" fill="#009192"></path>
                                        <path d="M43.9044602,27.0275223 C44.6093817,27.0275223 45.1809469,26.4557986 45.1809469,25.7504113 L45.1809469,25.3285858 C45.1809469,24.6231984 44.6093817,24.0517454 43.9044602,24.0517454 L1.48014567,24.0517454 C0.775494733,24.0517454 0.203658999,24.6231984 0.203658999,25.3285858 L0.203658999,25.7504113 C0.203658999,26.4557986 0.775494733,27.0275223 1.48014567,27.0275223 L43.9044602,27.0275223 Z" id="Fill-18" fill="#004849"></path>
                                        <path d="M31.8561194,17.5545243 C32.0711664,17.5545243 32.2772869,17.4335775 32.3757487,17.2263176 C33.2784052,15.3301324 35.0125769,15.7941674 35.207607,15.8539644 C35.5100253,15.9456891 35.8316491,15.7765801 35.9257829,15.4746191 C36.0196462,15.172117 35.853289,14.8514864 35.5519527,14.755703 C34.5684169,14.4434602 32.4211926,14.4548243 31.337031,16.7317076 C31.2004288,17.018787 31.3221536,17.3618753 31.6091534,17.4985154 C31.6889507,17.5366664 31.7730761,17.5545243 31.8561194,17.5545243" id="Fill-21" fill="#004849"></path>
                                        <path d="M26.775789,16.1686153 C26.990836,16.1686153 27.197227,16.0476686 27.2956888,15.8404086 C28.1983453,13.9442234 29.932517,14.4082585 30.1272766,14.4680554 C30.4299654,14.5600507 30.7515892,14.3906711 30.8454525,14.0887102 C30.9393158,13.786208 30.7729586,13.4655774 30.4716223,13.3697941 C29.4870045,13.0578218 27.3403212,13.0694565 26.2569711,15.3457987 C26.1203689,15.6328781 26.2420937,15.9759664 26.5290935,16.1126064 C26.6088908,16.1507574 26.6927457,16.1686153 26.775789,16.1686153" id="Fill-23" fill="#004849"></path>
                                    </g>
                                    <g id="Pant-2" transform="translate(52.748948, 0.000000)">
                                        <path d="M32.4738075,3.41060513e-13 L1.45672305,3.41060513e-13 C-6.75861426,3.41060513e-13 22.4542391,36.751034 22.4542391,36.751034 C22.5959807,40.1521538 22.9903689,101.502186 22.9903689,101.502186 C42.8864114,105.592188 59.0587591,106.766751 72.6986914,104.593498 C72.6986914,104.593498 65.5496627,51.3823429 59.6284308,20.8193447 C56.5620496,4.99209707 43.536151,3.41060513e-13 32.4738075,3.41060513e-13" id="Fill-25" fill="#009192"></path>
                                        <path d="M49.2678004,101.387178 C49.5656202,101.33631 49.8407181,101.539241 49.8885965,101.834167 L49.8885965,101.834167 L50.4093079,105.038849 C50.4574567,105.334046 50.2572872,105.611926 49.9624428,105.659818 C49.9329584,105.664959 49.9037445,105.666853 49.8750715,105.666853 C49.6143101,105.666853 49.3846561,105.478262 49.3416467,105.212829 L49.3416467,105.212829 L48.8206649,102.008146 C48.7727865,101.712949 48.972956,101.43507 49.2678004,101.387178 Z M48.2259449,94.9774334 C48.5207892,94.9276477 48.7988626,95.1294962 48.846741,95.4244223 L48.846741,95.4244223 L49.3674524,98.6293757 C49.4156013,98.9245723 49.2154317,99.2024522 48.9205873,99.2503438 C48.8911029,99.2554847 48.861889,99.2573788 48.833216,99.2573788 C48.5724546,99.2573788 48.3428006,99.0687884 48.2997912,98.803355 L48.2997912,98.803355 L47.7788094,95.5984016 C47.730931,95.303205 47.9311005,95.0253251 48.2259449,94.9774334 Z M47.1843599,88.5679325 C47.4786632,88.5181469 47.7572776,88.7199953 47.805156,89.0149214 L47.805156,89.0149214 L48.3255969,92.2196042 C48.3737458,92.5148008 48.1735762,92.7926807 47.8787319,92.8405724 C47.8492474,92.8457133 47.8200335,92.8476073 47.7913605,92.8476073 C47.5305991,92.8476073 47.3009451,92.659017 47.2579357,92.3935835 L47.2579357,92.3935835 L46.7372244,89.1889007 C46.689346,88.8937041 46.8895155,88.6158242 47.1843599,88.5679325 Z M46.1425314,82.1581611 C46.4376463,82.1089165 46.7154492,82.3102239 46.7633276,82.6051499 L46.7633276,82.6051499 L47.2840389,85.8101033 C47.3321878,86.1052999 47.1320183,86.3831798 46.8371739,86.4310715 C46.8076895,86.4362124 46.7784755,86.4381064 46.7498026,86.4381064 C46.4890412,86.4381064 46.2593872,86.2495161 46.2163778,85.9840826 L46.2163778,85.9840826 L45.6953959,82.7791292 C45.6475175,82.4839326 45.8476871,82.2060527 46.1425314,82.1581611 Z M45.100676,75.7486872 C45.3955203,75.6994427 45.6735937,75.90075 45.7214721,76.1956761 L45.7214721,76.1956761 L46.2421834,79.4003589 C46.2903323,79.6955555 46.0901628,79.9734354 45.7953184,80.0213271 C45.765834,80.026468 45.73662,80.028362 45.7079471,80.028362 C45.4471857,80.028362 45.2175317,79.8397717 45.1745223,79.5743382 L45.1745223,79.5743382 L44.6535404,76.3696554 C44.6056621,76.0744588 44.8058316,75.7965789 45.100676,75.7486872 Z M44.0588205,69.3389158 C44.3533943,69.2888595 44.6317382,69.4909786 44.6796166,69.7859046 L44.6796166,69.7859046 L45.2003279,72.990858 C45.2484768,73.2860546 45.0483073,73.5639345 44.7534629,73.6118262 C44.7239785,73.6169671 44.6947646,73.6188611 44.6660916,73.6188611 C44.4053302,73.6188611 44.1756762,73.4302708 44.1326668,73.1648373 L44.1326668,73.1648373 L43.611685,69.9598839 C43.5638066,69.6646873 43.7639761,69.3868074 44.0588205,69.3389158 Z M43.0172625,62.9294149 C43.3145414,62.879088 43.5901802,63.0814777 43.6380586,63.3764037 L43.6380586,63.3764037 L44.15877,66.5810865 C44.2069189,66.8762832 44.0067493,67.154163 43.711905,67.2020547 C43.6824205,67.2071956 43.6532066,67.2090896 43.6245337,67.2090896 C43.3637723,67.2090896 43.1341183,67.0204993 43.0911089,66.7550658 L43.0911089,66.7550658 L42.570127,63.550383 C42.5222486,63.2551864 42.7224182,62.9773065 43.0172625,62.9294149 Z M41.975407,56.5196705 C42.2699809,56.4701554 42.5483248,56.6717333 42.5962031,56.9666593 L42.5962031,56.9666593 L43.1169145,60.1716127 C43.1650634,60.4668093 42.9648938,60.7446892 42.6700495,60.7925809 C42.6405651,60.7977218 42.6113511,60.7996158 42.5826782,60.7996158 C42.3219168,60.7996158 42.0922628,60.6110255 42.0492534,60.345592 L42.0492534,60.345592 L41.5282715,57.1406386 C41.4803931,56.845442 41.6805627,56.5675621 41.975407,56.5196705 Z M40.9335515,50.1101696 C41.2308304,50.0595722 41.5064693,50.2622324 41.5543477,50.5571584 L41.5543477,50.5571584 L42.075059,53.7618412 C42.1232079,54.0570379 41.9230383,54.3349177 41.628194,54.3828094 C41.5987096,54.3879503 41.5694956,54.3898443 41.5408227,54.3898443 C41.2800613,54.3898443 41.0504073,54.201254 41.0073979,53.9358205 L41.0073979,53.9358205 L40.486416,50.7311377 C40.4385376,50.4359411 40.6387072,50.1580612 40.9335515,50.1101696 Z M39.8919665,43.7003981 C40.1895159,43.652777 40.4648843,43.8527315 40.5127627,44.1476575 L40.5127627,44.1476575 L41.033474,47.3523403 C41.0816229,47.647537 40.8814533,47.9254168 40.586609,47.9733085 C40.5571246,47.9784494 40.5279106,47.9803434 40.4989672,47.9803434 C40.2384763,47.9803434 40.0088223,47.7917531 39.9658129,47.5263197 L39.9658129,47.5263197 L39.444831,44.3210957 C39.3969526,44.0264402 39.5971222,43.7482898 39.8919665,43.7003981 Z M38.8501381,37.2906537 C39.1468759,37.2430326 39.4230558,37.4429871 39.4709342,37.7379131 L39.4709342,37.7379131 L39.9916456,40.9428665 C40.0397945,41.2377926 39.8396249,41.515943 39.5447806,41.5638347 C39.5152961,41.568705 39.4860822,41.5708696 39.4571387,41.5708696 C39.1966478,41.5708696 38.9669938,41.3822793 38.9239844,41.1165752 L38.9239844,41.1165752 L38.4030026,37.9116219 C38.3551242,37.6166958 38.5552937,37.3385454 38.8501381,37.2906537 Z" id="Combined-Shape" fill-opacity="0.8" fill="#FFFFFF" style="mix-blend-mode: overlay;"></path>
                                    </g>
                                    <g id="Pant-1" transform="translate(0.000000, 0.000081)">
                                        <path d="M64.2308461,-2.84217094e-14 L1.56019247,-2.84217094e-14 C1.56019247,-2.84217094e-14 -4.77896099,22.6075707 8.0984335,34.9733604 C19.9671357,46.3707644 47.0925451,42.2929382 52.77168,41.2877544 L53.704362,35.4173729 C53.7511584,35.1221763 54.0319367,34.9214101 54.3235351,34.9676783 C54.6183794,35.0147583 54.8199015,35.292097 54.7731051,35.5872936 L53.8109387,41.6430185 C53.3578522,48.6606353 44.884188,106.372524 44.884188,106.372524 C61.0681672,111.122187 81.9288105,111.564305 92.765828,109.463836 C92.765828,109.463836 92.964104,55.2761786 90.7917233,21.9235587 C89.8566069,7.56850619 78.4493767,-2.84217094e-14 64.2308461,-2.84217094e-14 Z" id="Fill-1" fill="#004849"></path>
                                        <path d="M60.2029743,106.595806 L60.2435427,106.598021 C60.5413625,106.622643 60.7629015,106.884018 60.7382861,107.18165 L60.7382861,107.18165 L60.6043889,108.799685 C60.5805849,109.082164 60.3441685,109.295647 60.0658246,109.295647 C60.0506766,109.295647 60.0352582,109.295106 60.0201102,109.293753 C59.7222903,109.268861 59.5012923,109.006945 59.5261783,108.709313 L59.5261783,108.709313 L59.6600755,107.092902 C59.6844204,106.79527 59.9440999,106.570422 60.2435427,106.598021 L60.2029743,106.595806 Z M60.7104682,100.316413 L60.7509996,100.317746 C61.0490899,100.341828 61.2711699,100.602661 61.247366,100.900293 C61.1513387,102.098667 61.0639674,103.185835 60.986334,104.143668 C60.9633416,104.426689 60.7266546,104.640984 60.4477697,104.640984 C60.4331628,104.640984 60.4185558,104.640443 60.4034078,104.63909 C60.105588,104.615009 59.8837785,104.353904 59.9081234,104.055731 C59.9857568,103.098439 60.0731281,102.012083 60.1688849,100.81425 C60.1924183,100.516348 60.4518272,100.297183 60.7509996,100.317746 L60.7104682,100.316413 Z M61.2208898,93.8320212 L61.2613508,93.8332153 C61.5594411,93.8564847 61.7820621,94.1167772 61.7587992,94.4146796 C61.6708869,95.5448687 61.5859501,96.6282485 61.5048003,97.6575134 C61.4823488,97.9410753 61.2453913,98.1561819 60.9659654,98.1561819 C60.951629,98.1561819 60.937563,98.1556408 60.922956,98.1545585 C60.6248657,98.1310185 60.4025152,97.8704554 60.4260486,97.5722825 C60.5071985,96.5438293 60.5918648,95.4604495 60.6800476,94.3308015 C60.7033105,94.0326286 60.9627195,93.8137339 61.2613508,93.8332153 L61.2208898,93.8320212 Z M61.7171875,87.3475737 L61.7571762,87.3491982 C62.0552665,87.3716559 62.2784285,87.6316779 62.2559771,87.9295802 C62.1721223,89.0370411 62.08962,90.1196092 62.0092816,91.1718729 C61.9876417,91.455976 61.7504137,91.6718943 61.4701763,91.6718943 C61.4566514,91.6718943 61.4425854,91.6713532 61.4285194,91.6702709 C61.1306996,91.6475426 60.9075376,91.3872501 60.9302595,91.0893477 C61.0108683,90.0373545 61.0933707,88.9553277 61.176955,87.8481373 C61.1994064,87.5496938 61.4623318,87.3261994 61.7571762,87.3491982 L61.7171875,87.3475737 Z M62.1973715,80.864005 L62.2379618,80.8651811 C62.5360522,80.8870977 62.7600257,81.1463079 62.7383857,81.4444809 C62.6580474,82.5400365 62.5782501,83.6226045 62.4987233,84.6873146 C62.4776243,84.9716883 62.2403963,85.1881478 61.9598884,85.1881478 C61.9463635,85.1881478 61.932568,85.1876067 61.9187725,85.1865244 C61.6209527,85.1643373 61.3975202,84.9045859 61.4199716,84.6064129 C61.4994985,83.5425145 61.5790253,82.4607582 61.6588226,81.3657437 C61.6807331,81.0675708 61.9382485,80.8456998 62.2379618,80.8651811 L62.1973715,80.864005 Z M62.6616978,74.379509 L62.7015437,74.3804065 C62.9999045,74.4012407 63.224419,74.6599098 63.2033201,74.9580827 C63.1270393,76.0457917 63.0502174,77.1280892 62.9731251,78.2014577 C62.9525671,78.4863725 62.7150687,78.7039143 62.4340198,78.7039143 C62.4210358,78.7039143 62.4077814,78.7033731 62.3945269,78.7025614 C62.096707,78.681186 61.872463,78.4219758 61.8938325,78.1238028 C61.9709248,77.0509755 62.0477466,75.9692191 62.1240275,74.8823219 C62.1451264,74.5844195 62.4077814,74.3630897 62.7015437,74.3804065 L62.6616978,74.379509 Z M63.1044658,67.8909898 L63.1453521,67.8929531 C63.4434424,67.912705 63.6690389,68.1705624 63.6487515,68.4690059 C63.5765281,69.5504917 63.5029523,70.6338714 63.4285649,71.7150866 C63.409089,72.0005426 63.17132,72.2188961 62.8894596,72.2188961 C62.8770167,72.2188961 62.8643032,72.2183549 62.8515897,72.2175432 C62.5534994,72.1969795 62.3284439,71.9388516 62.3492723,71.6406786 C62.4236597,70.5600046 62.4972355,69.4774366 62.5694588,68.396492 C62.5892053,68.0985896 62.8432042,67.866978 63.1453521,67.8929531 L63.1044658,67.8909898 Z M63.5238137,61.4083015 L63.5635171,61.4092066 C63.8618779,61.4278762 64.0882859,61.6849219 64.0696215,61.9830948 C64.0022671,63.0578162 63.9332898,64.1406548 63.8624189,65.2283638 C63.8437545,65.5146315 63.605715,65.7343378 63.3230431,65.7343378 C63.3111412,65.7343378 63.2992392,65.7340673 63.2873372,65.7332555 C62.9892469,65.7137742 62.7633799,65.456458 62.7825853,65.1580144 C62.8534562,64.0713878 62.9224335,62.9890903 62.9897879,61.9154512 C63.0084523,61.6175489 63.2708367,61.3916193 63.5635171,61.4092066 L63.5238137,61.4083015 Z M63.908119,54.9184081 L63.9489246,54.9188581 C64.2472855,54.9356337 64.4753165,55.191597 64.4585455,55.48977 C64.3979536,56.5566447 64.3343863,57.6402951 64.2686549,58.736933 C64.251343,59.0242829 64.013033,59.2456128 63.7292791,59.2456128 C63.7181887,59.2456128 63.7070982,59.2453422 63.6960077,59.2445305 C63.3979174,59.2269431 63.1706979,58.9704386 63.1885508,58.6719951 C63.2545527,57.5767101 63.317579,56.494142 63.3781709,55.4286202 C63.3949419,55.1301767 63.6473178,54.9047882 63.9489246,54.9188581 L63.908119,54.9184081 Z M64.2875628,48.4255874 C64.5861942,48.4401984 64.8161187,48.6937266 64.8017822,48.9924407 C64.7506578,50.0479513 64.6957464,51.1326839 64.6370481,52.2417682 C64.6216296,52.5304711 64.3830491,52.7542361 64.0974018,52.7542361 C64.0876638,52.7542361 64.0781963,52.7539655 64.0681878,52.7534244 C63.769827,52.737731 63.540714,52.48285 63.5566735,52.184677 C63.6153718,51.0772162 63.6702832,49.994107 63.7208666,48.9399492 C63.7352031,48.6412351 63.98812,48.4134115 64.2875628,48.4255874 Z M64.5097575,41.926939 L64.5496227,41.927311 C64.848254,41.9373223 65.082236,42.1876036 65.072498,42.4860471 C65.0381446,43.5212646 64.9962172,44.6084324 64.9491503,45.7405156 C64.9369778,46.031383 64.6973153,46.2589361 64.4086925,46.2589361 C64.4011185,46.2589361 64.393815,46.2586655 64.3859705,46.2583949 C64.0873392,46.2459485 63.8555212,45.9935026 63.8679642,45.6950591 C63.9153016,44.5664934 63.956688,43.4820313 63.9910414,42.4503313 C64.0010499,42.1516172 64.2553193,41.9132411 64.5496227,41.927311 L64.5097575,41.926939 Z M64.6505189,35.4236232 C64.9486093,35.4236232 65.1904357,35.6647049 65.1915177,35.9628779 L65.1915177,35.9628779 L65.1923292,36.4044553 C65.1923292,37.2399889 65.1817798,38.1899755 65.1612218,39.2278988 C65.1550003,39.5230954 64.9142559,39.7582245 64.6204935,39.7582245 L64.6204935,39.7582245 L64.609403,39.7582245 C64.3105012,39.7522719 64.0732732,39.5049669 64.0792242,39.2062528 C64.0997822,38.1753645 64.1103316,37.232954 64.1103316,36.4044553 L64.1103316,36.4044553 L64.1095201,35.9666659 C64.1084381,35.6679518 64.3497236,35.4247055 64.6483549,35.4236232 L64.6483549,35.4236232 L64.6505189,35.4236232 Z M62.7045192,29.646184 C62.8898113,29.4118666 63.2300995,29.3726333 63.464352,29.5579768 C63.9555789,29.9473333 64.3518605,30.3388544 64.6423769,30.7222583 C64.803324,30.943047 64.9753617,31.3405207 65.0827499,32.6779698 C65.1068244,32.9758722 64.8844739,33.2367059 64.5869245,33.2605164 C64.5720471,33.2618693 64.5574401,33.2624104 64.5431036,33.2624104 C64.2636777,33.2624104 64.0269908,33.0475744 64.0042688,32.7645536 C63.91284,31.6259767 63.7846233,31.3859772 63.7700163,31.3624372 C63.5444198,31.0653466 63.2122466,30.7390339 62.7924315,30.406498 C62.5584495,30.220884 62.5186861,29.8805014 62.7045192,29.646184 Z M56.9088261,26.7291759 C57.0221653,26.4529195 57.3381086,26.320338 57.6148295,26.4342498 C58.7376725,26.8961203 59.7466353,27.3544732 60.6141269,27.7971329 C60.8802983,27.9329612 60.9857931,28.2587328 60.8500024,28.524978 C60.7545161,28.712486 60.564896,28.8204452 60.3677019,28.8204452 C60.2849291,28.8204452 60.2010743,28.801505 60.122359,28.7611894 C59.2811058,28.3320584 58.299193,27.8858813 57.2033999,27.4351044 C56.9269495,27.3214632 56.7952163,27.0054323 56.9088261,26.7291759 Z M50.779526,24.5599541 C50.8717663,24.2755805 51.1763487,24.1202708 51.460914,24.2119955 C52.5577891,24.5680714 53.5986708,24.9219826 54.5546157,25.2645298 C54.8359351,25.3651834 54.9822752,25.6749911 54.8816495,25.9563884 C54.8026636,26.1774477 54.5941086,26.31517 54.3722991,26.31517 C54.3119777,26.31517 54.2503039,26.3051588 54.1899825,26.2835128 C53.2440461,25.9447537 52.2137139,25.5940894 51.1271178,25.241531 C50.8428229,25.1492651 50.6872858,24.8440572 50.779526,24.5599541 Z M44.5490592,22.6977531 C44.6307501,22.4104031 44.9296519,22.2431882 45.2174633,22.3251722 C46.3067643,22.6349798 47.3598185,22.9426229 48.3460593,23.2397136 C48.6322477,23.3257562 48.7942768,23.6277172 48.708258,23.9139849 C48.6376577,24.1480317 48.4228812,24.2992828 48.1905222,24.2992828 C48.1385863,24.2992828 48.0861094,24.2917067 48.034444,24.2760134 C47.0530722,23.9805462 46.0056985,23.6745266 44.9215369,23.3663424 C44.6339961,23.2846289 44.4673684,22.9853736 44.5490592,22.6977531 Z M38.273392,21.0017659 C38.3491318,20.7125219 38.6442467,20.5404366 38.9339515,20.6153857 C39.9772677,20.889207 41.0284284,21.1687103 42.0779661,21.4538957 C42.3663184,21.5323622 42.536733,21.8294529 42.4582882,22.1178852 C42.3930979,22.3589669 42.1748048,22.5175235 41.9364949,22.5175235 C41.8896985,22.5175235 41.8418201,22.5113003 41.7944827,22.4983127 C40.7479205,22.2142096 39.7000058,21.9352475 38.6593946,21.6625085 C38.3705013,21.5864771 38.1976522,21.2907393 38.273392,21.0017659 Z M31.9721084,19.3927143 C32.0448728,19.1026585 32.3383646,18.9262441 32.628881,19.0001109 C33.6554262,19.2590505 34.7101034,19.5258369 35.7826335,19.8001993 C36.0720679,19.8740661 36.2468105,20.1689921 36.1726936,20.4585067 C36.1102083,20.7031059 35.8902923,20.8657211 35.6490068,20.8657211 C35.6046449,20.8657211 35.5594715,20.8600391 35.5145686,20.8486749 C34.443391,20.5748537 33.3900663,20.3080673 32.3643326,20.0496688 C32.0746277,19.9766137 31.8990736,19.6824994 31.9721084,19.3927143 Z M25.6664156,17.7977866 C25.7405324,17.508272 26.0348358,17.3332104 26.3248112,17.4081595 C27.3132161,17.6616877 28.3684343,17.928474 29.4747768,18.206895 C29.7644817,18.2799501 29.9403063,18.5737939 29.8675419,18.863579 C29.8058681,19.1092606 29.5854111,19.272958 29.3433141,19.272958 C29.2994932,19.272958 29.2551313,19.2675466 29.2107694,19.256453 C28.1025334,18.9777614 27.0459626,18.7104339 26.0559347,18.4563646 C25.7667709,18.3822272 25.5920283,18.0873012 25.6664156,17.7977866 Z M19.4126859,16.0010646 C19.5092541,15.7183144 19.8165415,15.5673339 20.0994838,15.6639289 C20.8336192,15.9147513 21.8439345,16.2150889 23.1877755,16.5822583 C23.4761279,16.6609955 23.645731,16.9586273 23.5670157,17.246789 C23.5015548,17.4873296 23.2835323,17.6456156 23.0454928,17.6456156 C22.9984259,17.6456156 22.9505475,17.6393924 22.9026691,17.6261342 C21.5366472,17.2530122 20.5055034,16.9461808 19.7499986,16.6880529 C19.4673267,16.5914578 19.3161176,16.2838148 19.4126859,16.0010646 Z M21.1778026,1.25654736 C21.4750815,1.22056097 21.7447694,1.42890323 21.7823688,1.72545274 C21.7956233,1.83043559 22.1023696,4.33243676 21.6046507,7.12692883 C20.9916991,10.5678231 19.4106301,12.92182 17.0153579,13.9992472 C17.1297791,14.0904307 17.2420364,14.1845906 17.3591626,14.2698215 C17.6009891,14.4454243 17.6545479,14.7839128 17.4789938,15.0255357 C17.3732286,15.1713753 17.2082239,15.2487596 17.0407848,15.2487596 C16.9306915,15.2487596 16.8195163,15.2152084 16.723489,15.1454002 C15.8311115,14.4973746 15.0182608,13.6978273 14.3071179,12.7689455 C14.1256128,12.5316518 14.1707862,12.1918104 14.4080141,12.010255 C14.6452421,11.8286996 14.9849894,11.8736149 15.166224,12.1109087 C15.4632323,12.4989123 15.7816101,12.8585056 16.1145949,13.1942884 C21.8050908,11.1793211 20.7206587,1.9548998 20.7087567,1.8610105 C20.6714278,1.56446099 20.8816058,1.29388662 21.1778026,1.25654736 Z M11.8670239,6.07342047 C12.1561878,5.99765965 12.4518436,6.1692038 12.5283949,6.45817722 C12.8089028,7.51801702 13.1619045,8.5177893 13.5776621,9.42962492 C13.7015508,9.70155216 13.5819901,10.0227239 13.3101382,10.146647 C13.2373739,10.1799276 13.1608225,10.195621 13.0858942,10.195621 C12.8805852,10.195621 12.6842026,10.0779211 12.5933148,9.87904894 C12.1521303,8.91147501 11.7783001,7.85379981 11.4823738,6.7349748 C11.4060929,6.44627195 11.5781305,6.14999302 11.8670239,6.07342047 Z M11.2756852,1.2523264 C11.571341,1.2523264 11.812897,1.49016127 11.816684,1.7864402 C11.816684,1.79266341 11.8256105,2.39902057 11.9378677,3.346572 C11.9730326,3.64339208 11.7609611,3.91261358 11.4642233,3.94778824 C11.4425833,3.95022341 11.4212138,3.95130571 11.3998444,3.95130571 C11.1296155,3.95130571 10.895904,3.74918666 10.8631736,3.47401253 C10.750859,2.52517382 10.7364135,1.90488444 10.7348508,1.81120159 L10.7346864,1.79969834 C10.7311699,1.50098424 10.9702913,1.25584387 11.2689227,1.2523264 L11.2689227,1.2523264 L11.2756852,1.2523264 Z" id="Combined-Shape" fill-opacity="0.8" fill="#FFFFFF" style="mix-blend-mode: overlay;"></path>
                                    </g>
                                </g>
                            </g>
                        </g>
                        <g id="Upper-Body" transform="translate(0.000000, 41.397878)">
                            <g id="Upper-Body/Pointing">
                                <g id="hand-2" transform="translate(60.921266, 18.960640)">
                                    <path d="M65.3500999,8.01924981 C65.1388399,6.26241044 62.3459336,7.00648995 60.0531806,7.45483168 C60.0531806,7.45483168 63.8493692,4.91224435 62.1019431,3.28311609 C60.3729109,1.67049286 53.4251338,5.00072217 50.5391757,6.35846434 C53.0764601,3.9289771 53.4957342,0.0992675104 51.6660762,0.576560693 C50.2973492,0.933718857 44.0098612,4.98232311 35.6281667,9.64080199 C33.9137415,10.4698419 26.5245094,13.8850315 20.9460002,13.9962376 C9.96778205,14.2154028 8.40483651,9.63268476 7.59847779,9.22357632 C6.01118731,11.2753417 1.98291023,15.4373167 0.541689417,28.212756 C9.92206765,33.8561255 19.233198,34.3098788 29.5938661,31.4772357 C29.7431817,31.4818355 29.8719395,31.469389 29.9771637,31.4398964 C41.7514617,28.1126435 54.1955161,21.0446998 59.3669237,19.1847716 C64.0557603,17.4982816 63.0930529,15.4432693 61.3926937,15.234927 C61.3926937,15.234927 65.3103365,14.3669245 65.1691358,12.5348654 C65.080953,11.3906064 64.3662936,10.9747336 61.5522883,11.1763115 C61.5522883,11.1763115 65.5778604,9.91218808 65.3500999,8.01924981 Z" id="SKIN" fill="#FFFFFF"></path>
                                    <path d="M61.267777,14.6734311 C61.2634491,14.6755957 57.3725857,15.5868902 57.3677167,15.588243 C56.8662108,15.6986374 57.015256,16.4800562 57.5227128,16.397531 C57.5227128,16.397531 61.3859853,15.8174195 61.3859853,15.8174195 C63.1593794,16.2844309 61.9940679,17.5942814 59.1722182,18.6435688 C57.8216147,18.8451467 52.0199435,21.4096505 46.4295324,24.240129 C46.4241224,24.2425642 46.4184419,24.2436465 46.4130319,24.2460816 L46.4114089,24.2468934 C42.7853645,26.0042739 39.1103596,27.6610007 35.3431144,29.057435 C31.5766808,30.4462933 27.7112443,31.5810821 23.7616826,32.186357 C19.8186128,32.8005608 15.7833028,32.8192305 11.8786439,32.0697395 C8.08651281,31.3537997 4.45343535,29.899733 1.12412873,27.9285988 C1.21961502,27.2004831 1.30752732,26.4710147 1.41843208,25.7453342 L1.62888061,24.4890574 L1.73599837,23.8615955 L1.86529709,23.2387333 L2.12443551,21.9932795 L2.43253433,20.7613544 C2.52829112,20.3484579 2.65217984,19.9442198 2.77228158,19.5391699 C2.89427681,19.1346613 3.00355856,18.7258234 3.14908724,18.3297025 C3.67791357,16.7270905 4.32765313,15.1672293 5.13969233,13.701528 C5.54084295,12.9658363 5.99176545,12.2607195 6.46946739,11.5734606 C6.84221557,11.0488169 7.23822669,10.5477132 7.64749228,10.032269 L7.84252235,10.2627983 C8.05405288,10.5128091 8.28100188,10.7633609 8.52093485,11.0003841 C8.99971879,11.4771361 9.5366601,11.8965264 10.1022743,12.2593666 C11.2364783,12.9877528 12.4910546,13.4693752 13.7594263,13.8092166 C15.0310439,14.1485168 16.3264656,14.3400835 17.6210757,14.4431723 C18.9210958,14.54572 20.199476,14.5654719 21.5124801,14.5162274 C22.8276482,14.4434429 24.1154958,14.2286068 25.37981,13.9442332 C26.6438537,13.6563421 27.8857164,13.2989133 29.1086442,12.8944046 C31.5266384,12.0883636 33.8678107,11.1343184 36.1700311,10.0184697 C36.1738181,10.0198226 36.1776051,10.0219872 36.1813921,10.0230695 C42.2933261,6.64224274 47.7676929,3.36558716 51.8113885,1.13334863 C52.8595737,1.15715917 51.8844233,4.33776086 50.1413252,5.942808 C49.7055506,6.40657247 49.3438929,6.89090058 49.094222,7.48454074 C48.8096566,8.00918444 49.100714,8.67533853 49.0863775,9.2668141 C49.0130722,12.3597497 46.9237348,13.4945386 46.7987641,13.5540649 C46.4557708,13.7104569 46.6867773,14.2429473 47.0313936,14.1138833 C49.2500297,13.2401987 50.1507927,10.5276907 50.0758643,8.31818037 C50.1770311,7.78433714 50.5830507,7.14740508 50.9931278,6.78077682 C53.2961597,5.69604418 60.3056107,2.3950369 61.7100436,3.70380511 C62.6670704,4.79259637 60.6991873,6.21500581 59.7870633,6.93906282 L54.727913,8.75001706 C54.4996115,8.83200109 54.3805918,9.08336468 54.4625531,9.31200002 C54.5415389,9.53305928 54.7809309,9.65130028 55.0032814,9.58446841 C55.0032814,9.58446841 60.1920009,8.01351363 60.1922714,8.01351363 C61.6678457,7.82789962 64.4180131,6.80918712 64.7788593,8.08819216 C64.5216143,10.3991678 57.9601104,11.533145 56.094476,12.4162997 C55.5523952,12.5905496 55.8172141,13.4393414 56.3630819,13.2734793 L61.6518862,11.7463576 C64.5151224,11.5485677 64.5565088,12.0721291 64.5957312,12.5789149 C64.673094,13.5835576 62.3871036,14.423691 61.267777,14.6734311 M64.0731263,10.6627073 C67.4622133,8.65937465 65.8884478,5.49581915 62.0581763,6.48206271 C63.0252117,5.47796124 63.6738692,3.92378207 62.4942213,2.86204826 C60.9761787,1.44559144 56.9130072,2.83661427 52.4338076,4.84941698 C53.603447,2.75057162 54.0808785,-0.27039119 51.5206016,0.0193939573 C47.3962973,2.20725829 41.845379,5.53938162 35.6696072,8.97459378 C33.4436676,10.0679848 31.1133153,11.0325824 28.7545605,11.8302357 C27.5611172,12.231768 26.3533374,12.5848676 25.1341966,12.8687001 C23.9153263,13.1492857 22.68239,13.3592514 21.4529702,13.4331182 C20.2211159,13.4839862 18.9473343,13.4623402 17.7081765,13.3646629 C16.4638793,13.2656327 15.22932,13.0816421 14.0380406,12.7634466 C12.8500073,12.4455218 11.6974093,11.9988035 10.6843891,11.3472604 C10.1785552,11.02203 9.70572223,10.6529666 9.28130867,10.2306 C9.06815514,10.0198226 8.86690358,9.79795158 8.66700453,9.56201073 L8.35538922,9.19321787 C8.29723184,9.12719773 8.23961547,9.06090701 8.16549864,8.9870402 C8.0935458,8.91614972 7.9996825,8.82794248 7.84306335,8.74108811 C7.62531133,8.61960021 7.34534445,8.6704682 7.1857498,8.87285782 L7.17060184,8.89233918 C6.65286598,9.54875259 6.09347322,10.2333057 5.58709834,10.9470809 C5.08613345,11.6673499 4.612489,12.4087236 4.19240343,13.1787783 C3.34195331,14.7137467 2.66813931,16.3344871 2.12281252,17.9871554 C1.97295585,18.396805 1.8598871,18.8164658 1.73464588,19.2328798 C1.61075715,19.6495643 1.48362243,20.0657077 1.38570165,20.4883448 L1.06975835,21.7516565 L0.804939434,23.0244384 L0.672665227,23.6608293 L0.563383469,24.3010082 L0.348877444,25.5813661 C0.218496732,26.4363811 0.12003495,27.2951842 0.00426120635,28.1518226 L0.00426120635,28.1520932 C-0.0214362368,28.3531299 0.0699925607,28.5601193 0.254202653,28.6713254 L0.263129133,28.6767369 C3.76609638,30.7931696 7.63396731,32.3652067 11.6771219,33.1255206 C15.7173009,33.8990927 19.8848852,33.8733882 23.9223593,33.241597 C27.9684893,32.6190054 31.8988456,31.4598648 35.7109936,30.0515253 C39.5239532,28.6356096 43.226549,26.9629189 46.8720694,25.1933625 C46.8772089,25.1909273 46.8809959,25.1874099 46.8858649,25.1849747 C50.8018847,23.1794775 55.0343888,21.3544534 59.5617373,19.7261368 C63.4095913,18.2290489 63.9338191,16.8020396 62.9310779,15.3688072 C64.2118925,14.8842085 65.8567994,13.9693966 65.7426486,12.4904371 C65.6582528,11.3975872 65.0769496,10.8694261 64.0731263,10.6627073" id="Fill-3" fill="#009192"></path>
                                </g>
                                <g id="T-Shirt" transform="translate(-0.000002, 7.248126)" fill="#009192">
                                    <path d="M72.3099562,20.8798923 C63.9128433,15.5157555 57.6210272,8.45268224 57.6210272,8.45268224 C57.5847803,8.41209608 57.5512384,8.36934533 57.5152619,8.32767688 C48.1273097,-2.47987505 22.99494,-1.71820821 10.7680965,8.63613166 C-9.94052612,26.1736798 6.93701351,83.300046 6.93701351,83.300046 L70.81707,83.300046 C70.81707,83.300046 68.8973357,64.4353306 67.1904845,48.3610486 C66.7317175,44.0383525 66.3408459,40.1455991 65.9518678,36.6108156 C68.0647386,32.3622569 70.564694,26.7321453 72.3099562,20.8798923 Z" id="Fill-5"></path>
                                </g>
                                <g id="Neck" transform="translate(28.271171, 0.230176)">
                                    <path d="M15.5855998,1.37319376 C15.5855998,1.37319376 16.4979943,9.46093216 16.403049,13.566357 C16.2821358,18.809006 5.25198169,17.5346007 2.03520283,14.0490617 C0.429247882,12.3087274 0.11411608,10.6468596 1.12037385,8.85755132 C1.2329016,5.0324415 0.964566197,0.541448154 0.964566197,0.541448154" id="SKIN" fill="#FFFFFF"></path>
                                    <path d="M10.786724,17.6299782 C7.37680859,17.6299782 3.4413128,16.3704545 1.63762281,14.4160958 C-0.109262325,12.522887 -0.454960559,10.6556533 0.583216142,8.71184703 C0.684112419,4.98333225 0.427137988,0.617885413 0.424432994,0.573781791 C0.406580033,0.275338264 0.63407003,0.0191043375 0.932430869,0.0012464293 C1.23079171,-0.0190466482 1.48695464,0.210941564 1.5048076,0.509385092 C1.5072421,0.554300437 1.77314301,5.0682926 1.66115626,8.8736505 C1.65845126,8.96104602 1.63491781,9.04654752 1.59190841,9.12284949 C0.710350861,10.6905574 0.969759787,12.0964618 2.43289105,13.6820276 C4.57470529,16.0030145 10.6444414,17.2790432 13.8274078,16.075799 C15.1504204,15.5757776 15.8350544,14.7272564 15.8621043,13.5537753 C15.9548856,9.53249908 15.0570981,1.51429829 15.0479011,1.4339377 C15.0143592,1.13684705 15.2280537,0.868978426 15.5250621,0.835427204 C15.8234229,0.801605408 16.0895943,1.01562973 16.1231362,1.31244981 C16.1604651,1.64417399 17.0385062,9.48379569 16.9438314,13.5789387 C16.906232,15.2132079 15.9605661,16.426734 14.2096235,17.0882883 C13.2290631,17.4587046 12.0434643,17.6299782 10.786724,17.6299782" id="Fill-12" fill="#009192"></path>
                                </g>
                                <g id="hand" transform="translate(0.093727, 33.253358)">
                                    <path d="M86.2008026,31.4249009 C85.6887473,29.9683991 82.0167179,29.2862811 79.1058738,28.5649299 C79.0758484,28.5008038 79.049069,28.4347836 79.017691,28.3711986 C77.4736805,25.2246894 60.3345679,25.483629 45.8977444,25.8989607 C36.8089645,25.7758494 26.7074347,24.2703736 25.3595362,22.2283488 C24.2421032,20.5359062 23.8285096,17.9262164 23.6764889,16.1079567 C12.9311707,17.6288552 5.31471908,17.7362732 0.575569581,17.7782122 C1.05137803,21.905283 2.29378178,29.1899567 8.81714533,36.4795007 C14.6645309,43.0133305 31.6989603,44.8199556 47.5448152,43.0303767 L47.5699717,43.1856864 C55.1934563,41.8888234 61.9207764,40.7754099 64.7542576,41.1742365 C68.2896848,41.6720934 69.2764666,40.2740356 71.4220679,39.4523013 C71.6839113,42.159939 73.4743468,43.5420328 74.4403002,41.0938759 C75.6020951,41.8152272 76.6475753,41.7478542 77.2386165,39.6947359 C78.5578421,40.1127733 79.9809394,39.2461236 80.2993172,37.6056312 C80.4908308,36.6183053 80.5589966,35.0029764 80.3550401,33.2282791 C84.1309412,33.4912774 86.7680399,33.038877 86.2008026,31.4249009" id="SKIN" fill="#FFFFFF"></path>
                                    <path d="M85.6323211,32.036859 C85.2785079,32.4838478 83.8394511,32.8477704 80.8682856,32.6819083 C80.717888,31.6017754 80.461184,30.4740214 80.0684189,29.3919945 C82.2372831,29.9748117 86.0337422,30.6204022 85.6323211,32.036859 M79.7348932,37.4967791 C79.4860337,38.5433608 78.8441386,39.6040123 77.8973907,39.4895594 C78.1705951,37.2462273 77.7845925,34.9853079 77.1435089,32.851829 C77.0412601,32.5030586 76.4907938,32.621029 76.5405657,32.9819753 C76.9465853,34.9100882 77.1489189,36.9058447 76.9189944,38.8518156 C76.8129586,39.4952414 76.7193658,40.1760065 76.2238109,40.6219131 C75.9292371,40.8746295 75.5578414,41.074584 75.3154739,40.7493536 C75.0390236,39.9065145 75.0963694,38.2814448 74.6619474,36.8457772 C74.4996477,36.3089577 74.1350146,34.4739223 73.4138631,34.6403255 C73.2177511,34.7122983 73.1176663,34.9282167 73.1893486,35.1214068 C73.8096038,36.7943681 73.9737969,38.6456379 74.0170768,40.426829 C73.8490967,41.1197699 73.5753513,42.1685162 72.7051547,41.7889003 C71.8996075,40.9303679 72.2052718,39.3832236 71.5701392,38.3582879 C71.3004513,37.8758538 70.5027486,36.4052821 69.8026961,37.0495197 C69.654733,37.2494742 69.6955784,37.5308715 69.8925019,37.6794168 C70.337203,38.0014003 70.6601792,38.5961228 70.8324874,39.1554 C69.0880367,40.0334138 67.3414221,40.9571547 64.8328106,40.603514 C61.4767246,40.3954423 55.7069724,41.2190707 49.2866691,42.2710638 C41.4397519,43.3041168 33.4321582,43.4288516 26.4795119,42.6049526 C18.0972765,41.6119447 12.1289777,39.3688832 9.22029763,36.1184733 C2.87600468,29.0291543 1.6068215,21.9130485 1.12776706,17.8414455 C1.94900324,17.9548161 3.14542208,18.0073075 4.5833969,18.0073075 C9.79592036,18.0073075 18.1565158,17.3186958 23.1531808,16.3530159 C23.3227839,18.2172732 23.7636979,20.7931412 24.9079104,22.5267112 C26.8046522,25.3996698 41.422981,26.7514594 50.2612784,26.3848311 C50.3034763,26.3832076 50.3437807,26.3756316 50.3827326,26.3648086 C59.2245466,26.1234562 69.1210377,25.9792401 75.759093,27.303431 C77.6853192,27.7544785 78.3212633,28.2580174 78.5000634,28.6241045 C79.7576151,31.1250234 80.1790532,34.994778 79.7348932,37.4967791 M86.7424506,31.234606 C86.2590682,29.553798 82.4434037,28.7718381 79.6383249,28.1016254 C79.5947745,28.0913436 79.6210129,28.1005431 79.5084852,28.0705093 C79.2415022,27.3413114 78.462464,26.6591935 76.5310982,26.2300626 C70.8803658,24.9748681 58.1384915,25.1428947 46.590331,25.3666597 C37.141246,25.3209327 26.9996823,23.7310377 25.8108374,21.9300947 C24.7174788,20.2736384 24.3352632,17.6266094 24.201907,15.8611117 C24.2305799,15.7737161 24.2395064,15.678474 24.2192189,15.5816083 C24.1572746,15.289388 23.8700042,15.1024211 23.5781353,15.1638415 C16.715295,16.6138495 3.09727319,17.3622582 0.704705995,16.6590355 C0.41770613,16.5743457 0.117181296,16.7388549 0.0333264816,17.0256637 C0.00573554278,17.119553 0.00708803978,17.2142541 0.028186993,17.3030025 C0.00384204697,17.3749752 -0.00562543207,17.4534418 0.00330104817,17.5346141 C0.458822039,21.6376038 1.61466598,29.2423669 8.41393892,36.8403657 C13.0475937,42.0183474 24.1827015,44.2202816 36.1009053,44.2202816 C41.4232515,44.2202816 46.9032988,43.7808688 52.0281805,42.9710397 C52.046845,42.9680634 52.0636159,42.9615696 52.0814689,42.9569699 C52.1393557,42.9491232 52.1972426,42.9429 52.2545885,42.933971 C57.3591827,42.1595872 61.953074,41.545654 64.674298,41.743985 C67.390653,42.12793 69.3515031,41.1939073 71.0716088,40.3204932 C71.1730461,41.1955307 71.239589,42.1411881 72.0262012,42.7643209 C73.010278,43.4624028 74.4366214,42.9815921 74.844264,41.8938832 C75.946008,42.526486 77.2181667,41.6116741 77.6130959,40.6013494 C80.9564685,40.890864 81.2342713,36.770287 80.9951499,33.8440252 C83.1569811,33.8843408 87.4525116,34.1040472 86.7424506,31.234606" id="Fill-16" fill="#009192"></path>
                                    <path d="M26.2826695,15.1283422 C25.847977,12.7015607 25.4108499,10.2839787 25.1089726,7.85422087 C24.9588454,6.63988312 24.8414487,5.42283961 24.7919473,4.20741956 C24.7446099,2.99281122 24.7608399,1.77576773 24.9290905,0.589569705 L24.929902,0.583887644 C24.9574929,0.388532951 24.8244072,0.206165828 24.6288362,0.173696904 C24.4305601,0.140686831 24.2428335,0.274891717 24.2098326,0.473222728 C24.0015481,1.72489975 23.9569157,2.9825294 23.9755801,4.2301478 C23.9964086,5.47830736 24.0864849,6.71970255 24.2092916,7.95487454 C24.4400276,10.2585447 24.7884308,12.5411101 25.139539,14.8136642 C25.1330471,14.8152876 25.1268256,14.8169111 25.1203336,14.8182639 L24.6201802,14.933258 L23.6112174,15.1526939 L23.6047254,15.1540467 C23.3128566,15.2176317 23.1275645,15.5057934 23.1911319,15.7977431 C23.2546992,16.0899635 23.5427811,16.2750363 23.8346499,16.2117219 L24.8568672,15.9893098 L25.369734,15.8716099 C25.5425831,15.8302121 25.7119158,15.7896259 25.8982899,15.7374051 L25.9069458,15.7349699 C26.1658138,15.6597502 26.3313594,15.3994577 26.2826695,15.1283422" id="Fill-18" fill="#009192"></path>
                                </g>
                                <polygon id="Fill-20" fill="#CFCFCF" points="37.8632348 29.1283588 46.5760205 29.1283588 44.4317718 37.6122181 50.0403064 37.6990724 41.842822 54.6053706 42.1725608 43.224201 36.9126999 43.0191056"></polygon>
                            </g>
                        </g>
                        <g id="Head" transform="translate(11.090475, 0.000000)">
                            <g id="Head/Short-Hair-4">
                                <g id="Short-Hair" transform="translate(0.000021, 0.000034)">
                                    <path d="M40.2115548,24.6711808 C38.2412372,12.6187162 32.3543587,12.2653461 21.364509,13.0914096 C16.204192,13.4791427 9.76306023,18.153856 10.3394945,26.6247277 C7.32369663,25.4696458 5.63253437,27.3712424 5.73451265,29.6435259 C5.82648244,31.6836566 6.7494264,34.3712718 10.5015236,34.3712718 C10.8650748,40.5931294 14.9252708,50.6162862 27.6768831,50.6162862 C40.6971012,50.6162862 41.920029,35.1226568 40.2115548,24.6711808" id="SKIN" fill="#FFFFFF"></path>
                                    <path d="M11.6237986,8.51534769 C14.151345,-0.521836171 28.830536,-2.72782898 34.2180725,3.64771483 C40.1809613,0.875951009 47.8433979,1.68280377 48.8837386,8.18849386 C49.4950672,13.6145922 44.9947687,18.2184151 39.865559,20.7434151 C42.1180075,28.9610291 42.373359,40.6768992 37.1045716,47.0608308 C30.1110801,55.4264491 14.9030628,49.7830795 12.0923035,42.1496355 C9.16928699,41.409344 7.70426224,39.2793826 6.55274628,35.604171 C2.09464564,33.412248 -5.09874492,17.4829939 5.5064546,9.88743031 C7.43809082,8.60193149 9.59099556,8.12274429 11.6237986,8.51534769 Z M36.2795485,46.3603138 C41.2069656,40.3909021 40.9797461,28.9761813 38.8698507,21.1641582 C32.2323364,23.6361256 22.6658546,22.1815178 17.5653179,19.211423 C14.9482362,27.0643028 10.8539573,27.3990033 10.7005841,27.3110666 C9.66944038,26.7206734 8.27690947,26.4644395 7.26307771,27.2282709 C5.10341049,29.084411 6.45320251,34.0748846 10.5014965,33.8300148 C10.7879554,33.8300148 11.0397904,34.0529681 11.0416838,34.339777 C11.0546678,36.1372025 12.1940113,41.2107424 14.4002044,43.8804997 C18.5350583,50.2241157 30.8576585,52.8470637 36.2795485,46.3603138 Z" id="hair" fill="#009192"></path>
                                </g>
                            </g>
                        </g>
                        <g id="Face" transform="translate(27.590939, 27.328011)" fill="#009192">
                            <g id="Face/Happy">
                                <path d="M17.0485494,12.527025 C17.4331995,12.4504524 17.7853897,12.5857396 17.9906988,12.88743 C18.8238369,14.7974145 16.1837628,17.9090197 12.3921727,17.8914324 C9.87274124,18.0232021 6.81745051,16.49121 6.68734029,14.7535815 C6.56913206,14.0030082 7.24240507,12.7180505 8.28166377,12.9066408 C9.02202063,13.0408457 10.7918982,13.0903608 12.5214714,13.0286699 C14.8299133,12.9474976 17.0274504,12.530813 17.0485494,12.527025 Z M16.8673148,13.3993567 C16.8673148,13.3993567 11.4792372,14.1867282 7.94732651,13.7700436 C7.94732651,13.7700436 7.82992977,14.4859834 7.94353951,14.7129953 C9.33958692,15.5057782 15.0858057,15.3566917 16.9097832,14.202692 C17.0707303,13.6526144 16.8673148,13.3993567 16.8673148,13.3993567 Z M11.9083574,5.02973397 C12.0354922,5.0567914 12.124216,5.16502115 12.1317899,5.28840306 L12.1320604,5.29408512 C12.1685779,5.88339609 12.2348502,6.47135419 12.3874119,6.97732826 C12.4282573,7.10016902 12.4734307,7.22030404 12.5245551,7.31635794 C12.574327,7.41268242 12.6370828,7.48790209 12.6698133,7.50603057 C12.7366266,7.55473396 12.8683598,7.6418589 12.992519,7.71924317 C13.1207358,7.80041548 13.2578789,7.887811 13.3969156,7.98765295 C13.6676855,8.19166602 13.9717269,8.44844109 14.1678389,8.86647849 C14.2552102,9.07914994 14.3168841,9.30210322 14.2949737,9.5789008 C14.2744157,9.85082804 14.145658,10.1100383 13.9947193,10.2815824 C13.689055,10.6317057 13.3571522,10.7775452 13.0501354,10.9117501 C12.7379791,11.035132 12.4350198,11.1244216 12.1328719,11.1928769 C11.9045704,11.2448272 11.6776214,11.1016933 11.6259561,10.8733286 C11.5818647,10.678515 11.6792444,10.4850544 11.8504706,10.400094 L11.8526346,10.3990117 C12.1223225,10.2650774 12.3903874,10.1462952 12.6278858,10.0123609 C12.8637613,9.88627328 13.0796198,9.73096359 13.1640157,9.610558 C13.2062136,9.54886704 13.2091891,9.51910386 13.212435,9.48771724 C13.215681,9.46093037 13.1972871,9.38111094 13.1680731,9.31617309 C13.1104568,9.17736844 12.9522146,9.00825946 12.7450121,8.84645599 C12.6419518,8.76311908 12.5280716,8.68032333 12.4047238,8.59184551 C12.2786711,8.49822678 12.1537004,8.42165423 11.9919418,8.27067373 C11.7990757,8.08424799 11.7052124,7.89186962 11.6308251,7.71274939 C11.5561672,7.53200571 11.5199203,7.35829697 11.4885424,7.18702339 C11.3752031,6.50625829 11.441746,5.86526761 11.5732087,5.24754633 C11.6056686,5.09467181 11.7557958,4.99726504 11.9083574,5.02973397 Z M5.15539399,4.03369561 C5.28144671,4.04100111 5.40587643,4.03721307 5.53436365,4.05669443 C5.78890358,4.07888153 6.04885351,4.14165478 6.30420494,4.22959145 C6.55874488,4.32321018 6.80571083,4.46174425 7.03022534,4.63761759 C7.14194159,4.72744828 7.24608386,4.8275608 7.34211115,4.94066088 C7.39053054,4.99612863 7.43597444,5.05673729 7.48033634,5.11978112 C7.50251729,5.15387349 7.52307524,5.18363667 7.5444447,5.22205823 C7.56770765,5.26291496 7.58150312,5.2845609 7.61639754,5.36032173 C7.75462273,5.67012938 7.61585654,6.03324018 7.30613472,6.17150368 C6.99614241,6.30976718 6.63313221,6.17069196 6.49490702,5.86088431 C6.5065385,5.88794174 6.49382502,5.86250775 6.48895603,5.85736684 L6.46488159,5.82354504 C6.44648763,5.79892278 6.42728217,5.77267706 6.40401922,5.74751365 C6.36046882,5.69529279 6.30528694,5.64848343 6.25091656,5.60032119 C6.13784781,5.50751418 6.0074671,5.424989 5.85761043,5.36600379 C5.70856526,5.30485398 5.54978211,5.24884509 5.3744985,5.22259937 C5.29010269,5.201224 5.19732139,5.20041228 5.10859759,5.18742471 C5.02122628,5.17714288 4.94142896,5.17389599 4.85730365,5.17389599 C4.52513038,5.1779546 4.19539161,5.28050229 3.87971881,5.45799907 C3.72174716,5.54593574 3.57243149,5.65822411 3.42879631,5.78106487 C3.28786612,5.89930587 3.14450144,6.05461555 3.04171167,6.17772689 L3.01357973,6.21154869 C2.88157602,6.37037584 2.64543004,6.39175121 2.48691739,6.25944035 C2.3505857,6.14606969 2.31569127,5.95612648 2.3919721,5.80406369 C2.51531983,5.55865274 2.64488904,5.37601504 2.8012377,5.1812015 C2.95704535,4.99288174 3.13449296,4.81890242 3.33331002,4.66359273 C3.72661615,4.3472913 4.22920404,4.13002008 4.75911236,4.05885902 C4.89057507,4.04289513 5.02690677,4.03180159 5.15539399,4.03369561 Z M17.8729233,3.64214744 C18.2997714,3.72304918 18.692807,3.90189883 19.0220048,4.15461529 C19.1845749,4.28232639 19.3328086,4.42275449 19.4602138,4.5788759 C19.5884305,4.74203224 19.6920318,4.88949527 19.7923871,5.10406074 C19.8897669,5.31159128 19.8002316,5.55862568 19.5927585,5.65603245 C19.4545333,5.72069973 19.2987257,5.70257124 19.1813289,5.62194008 L19.0955806,5.56241372 C19.0011763,5.4972053 18.8737711,5.3916813 18.7563744,5.31889679 C18.6376251,5.2396185 18.5172529,5.16764572 18.3957987,5.10730764 C18.1572182,4.98284343 17.9045718,4.90383571 17.6613928,4.86162611 C17.4163203,4.83023948 17.1796334,4.83781557 16.9432169,4.90437686 C16.7062594,4.96471495 16.4698429,5.08430882 16.228287,5.23474816 L16.198532,5.25314722 C15.9448036,5.41116265 15.6112778,5.33377838 15.4533062,5.07997963 C15.3191385,4.86433186 15.3553854,4.5905106 15.5249885,4.41653128 C15.8038734,4.1302636 16.1552521,3.87727656 16.5715507,3.73684847 C16.9832508,3.58911486 17.4468868,3.56097513 17.8729233,3.64214744 Z M5.97438502,0.00240811178 C6.14074215,0.00484328108 6.28518884,0.015125107 6.48833389,0.0429942668 C6.85864757,0.0938622478 7.11751549,0.435597673 7.0666616,0.805743407 C7.01770121,1.162631 6.69932342,1.41615918 6.3449692,1.38883117 L6.28383634,1.38396083 C6.20187502,1.37746704 6.05932184,1.36718522 5.9386791,1.3652912 C5.81316738,1.35987971 5.68440967,1.36583235 5.55646345,1.36826752 C5.29921852,1.38098451 5.04008009,1.39911299 4.78337616,1.43942857 C4.27159129,1.5235772 3.75737193,1.63586557 3.2729075,1.83825519 C2.79033657,2.03793907 2.30506065,2.26008063 1.87063861,2.57367632 C1.41430612,2.85832056 1.01207351,3.2241371 0.595233932,3.59292996 L0.569806988,3.61538763 C0.428335802,3.74093414 0.211395282,3.727676 0.0858835599,3.58589503 C-0.0215047024,3.46440714 -0.0271851898,3.28772208 0.0626206114,3.16055212 C0.235740228,2.9159529 0.404531854,2.66188357 0.601996417,2.43027191 C0.809198958,2.2075892 1.00612252,1.97029548 1.2422685,1.7716939 C1.69697799,1.35555052 2.22093533,1.00705074 2.7795166,0.72781799 C3.33972086,0.450749838 3.93833603,0.239972406 4.55696816,0.126060598 C4.86587848,0.0670753855 5.17911678,0.0256775073 5.49533058,0.00727845038 C5.65438423,0.00294926051 5.81262638,-0.0035445243 5.97438502,0.00240811178 Z M18.7103895,0.297956493 C19.3006192,0.473018108 19.8729959,0.729793183 20.3644933,1.09398628 C20.6233612,1.25795435 20.8384083,1.47576671 21.0615703,1.67680347 C21.178426,1.77204564 21.2663383,1.89623928 21.3645296,2.00879822 C21.4605569,2.1229806 21.5557727,2.23716298 21.64639,2.35378053 C21.7721722,2.51531343 21.7429583,2.74800739 21.5811996,2.87355389 C21.4464909,2.97826617 21.2622808,2.97556043 21.1319001,2.87761251 L21.1040387,2.85650771 C20.6766496,2.53560651 20.267925,2.21605818 19.8072645,1.99445777 C19.361752,1.75039969 18.8870256,1.57912612 18.4012087,1.46548489 C17.9148507,1.35211423 17.4125333,1.31179865 16.9110275,1.32640966 L16.5355743,1.35049078 L16.1628261,1.39757072 C16.0392079,1.41651093 15.9161307,1.43653343 15.7962994,1.46386144 C15.6810667,1.48821313 15.546358,1.5223055 15.4657492,1.54503375 L15.4165183,1.55883304 C15.074607,1.65488694 14.7199823,1.45520306 14.6242255,1.11346764 C14.5319852,0.784719779 14.7148428,0.443254928 15.0329501,0.332319437 C15.2177012,0.268734461 15.3532214,0.230583475 15.5106521,0.195408808 C15.6626727,0.159422417 15.8149639,0.132906129 15.9669846,0.108013287 C16.2715669,0.0571453062 16.5791247,0.0430754391 16.886412,0.0365816543 C17.5012572,0.0254881053 18.1196188,0.119918559 18.7103895,0.297956493 Z" id="Happy"></path>
                            </g>
                        </g>
                    </g>
                </g>
            </g>
        </g>
    </g>
</svg>